STARTFONT 2.1
COMMENT
COMMENT Converted from OpenType font "Patriot-Medium.otf" by "otf2bdf 3.0".
COMMENT
FONT -FreeType-Patriot Medium-Medium-R-Normal--28-200-100-100-P-136-ISO10646-1
SIZE 20 100 100
FONTBOUNDINGBOX 47 38 -11 -8
STARTPROPERTIES 19
FOUNDRY "FreeType"
FAMILY_NAME "Patriot Medium"
WEIGHT_NAME "Medium"
SLANT "R"
SETWIDTH_NAME "Normal"
ADD_STYLE_NAME ""
PIXEL_SIZE 28
POINT_SIZE 200
RESOLUTION_X 100
RESOLUTION_Y 100
SPACING "P"
AVERAGE_WIDTH 136
CHARSET_REGISTRY "ISO10646"
CHARSET_ENCODING "1"
FONT_ASCENT 28
FONT_DESCENT 5
COPYRIGHT "Copyright © 2020 by Behalf Studio. All rights reserved."
_OTF_FONTFILE "Patriot-Medium.otf"
_OTF_PSNAME "Patriot-Medium"
ENDPROPERTIES
CHARS 426
STARTCHAR 0020
ENCODING 32
SWIDTH 360 0
DWIDTH 10 0
BBX 0 0 0 0
BITMAP
ENDCHAR
STARTCHAR 0021
ENCODING 33
SWIDTH 252 0
DWIDTH 7 0
BBX 4 19 2 0
BITMAP
E0
E0
E0
E0
E0
E0
E0
E0
E0
E0
E0
E0
00
00
00
E0
F0
F0
F0
ENDCHAR
STARTCHAR 0022
ENCODING 34
SWIDTH 324 0
DWIDTH 9 0
BBX 6 6 2 13
BITMAP
CC
CC
CC
CC
CC
CC
ENDCHAR
STARTCHAR 0023
ENCODING 35
SWIDTH 612 0
DWIDTH 17 0
BBX 14 19 2 0
BITMAP
0E38
0C38
1C38
1C30
1C70
FFFC
FFFC
FFFC
1870
3870
3860
FFFC
FFFC
FFFC
38E0
30E0
70E0
70C0
71C0
ENDCHAR
STARTCHAR 0024
ENCODING 36
SWIDTH 540 0
DWIDTH 15 0
BBX 12 25 2 -3
BITMAP
0600
0600
1F00
3FC0
7FE0
7BE0
F0F0
F0C0
F000
7800
3E00
1F80
0FC0
03E0
01E0
00F0
20F0
E0F0
F0F0
FFE0
7FE0
3FC0
0600
0600
0600
ENDCHAR
STARTCHAR 0025
ENCODING 37
SWIDTH 900 0
DWIDTH 25 0
BBX 22 20 2 0
BITMAP
3E00E0
7F00C0
FF81C0
E38380
C18700
C18600
E38E00
FF9C00
7F1800
183800
007000
0063F0
00E7F8
01C73C
038E1C
030E1C
070E1C
0E0F3C
0C07F8
1C03F0
ENDCHAR
STARTCHAR 0026
ENCODING 38
SWIDTH 648 0
DWIDTH 18 0
BBX 15 20 2 0
BITMAP
0F00
3FC0
7FE0
79F0
F060
F040
F000
F000
7FFE
3FFE
7FFE
FFFE
F03C
E03C
E038
E078
F0F8
FFF0
7FE0
1FC0
ENDCHAR
STARTCHAR 0027
ENCODING 39
SWIDTH 180 0
DWIDTH 5 0
BBX 2 6 2 13
BITMAP
C0
C0
C0
C0
C0
C0
ENDCHAR
STARTCHAR 0028
ENCODING 40
SWIDTH 324 0
DWIDTH 9 0
BBX 6 26 2 -4
BITMAP
08
1C
38
38
70
70
60
E0
E0
C0
C0
C0
C0
C0
C0
C0
C0
E0
E0
60
70
70
38
18
1C
08
ENDCHAR
STARTCHAR 0029
ENCODING 41
SWIDTH 324 0
DWIDTH 9 0
BBX 6 26 2 -4
BITMAP
C0
E0
E0
70
30
38
18
18
1C
1C
0C
0C
0C
0C
0C
0C
1C
1C
18
38
38
70
70
E0
E0
40
ENDCHAR
STARTCHAR 002A
ENCODING 42
SWIDTH 432 0
DWIDTH 12 0
BBX 9 9 2 10
BITMAP
1800
1C00
1C00
FB80
FF80
5F00
3600
7700
7700
ENDCHAR
STARTCHAR 002B
ENCODING 43
SWIDTH 540 0
DWIDTH 15 0
BBX 12 12 2 3
BITMAP
0600
0600
0600
0600
0600
FFF0
FFF0
0600
0600
0600
0600
0600
ENDCHAR
STARTCHAR 002C
ENCODING 44
SWIDTH 252 0
DWIDTH 7 0
BBX 4 5 2 -3
BITMAP
70
60
E0
C0
C0
ENDCHAR
STARTCHAR 002D
ENCODING 45
SWIDTH 432 0
DWIDTH 12 0
BBX 9 3 2 5
BITMAP
FF80
FF80
FF80
ENDCHAR
STARTCHAR 002E
ENCODING 46
SWIDTH 252 0
DWIDTH 7 0
BBX 4 4 2 0
BITMAP
E0
F0
F0
F0
ENDCHAR
STARTCHAR 002F
ENCODING 47
SWIDTH 396 0
DWIDTH 11 0
BBX 8 20 2 0
BITMAP
07
07
06
0E
0E
0E
0C
1C
1C
18
38
38
38
30
70
70
60
E0
E0
E0
ENDCHAR
STARTCHAR 0030
ENCODING 48
SWIDTH 720 0
DWIDTH 20 0
BBX 18 20 1 0
BITMAP
01E000
0FFC00
1FFE00
3F3F00
7C0780
780380
F003C0
F001C0
E001C0
E001C0
E001C0
E001C0
F001C0
F003C0
7003C0
780780
3C0F80
3FFF00
0FFE00
07F800
ENDCHAR
STARTCHAR 0031
ENCODING 49
SWIDTH 324 0
DWIDTH 9 0
BBX 7 19 1 0
BITMAP
1E
FE
FE
FE
1E
1E
1E
1E
1E
1E
1E
1E
1E
1E
1E
1E
1E
1E
1E
ENDCHAR
STARTCHAR 0032
ENCODING 50
SWIDTH 540 0
DWIDTH 15 0
BBX 14 20 1 0
BITMAP
0780
1FE0
3FF0
7CF8
F078
F038
F038
0038
0078
0070
00F0
01E0
03C0
0780
0F00
1E00
3E00
7FFC
FFFC
FFFC
ENDCHAR
STARTCHAR 0033
ENCODING 51
SWIDTH 504 0
DWIDTH 14 0
BBX 13 19 1 0
BITMAP
FFF0
FFE0
FFE0
03C0
0780
0F00
1FC0
3FE0
3FF0
10F0
0078
0038
0038
0038
2078
70F0
FFF0
7FE0
3FC0
ENDCHAR
STARTCHAR 0034
ENCODING 52
SWIDTH 540 0
DWIDTH 15 0
BBX 15 19 0 0
BITMAP
01F8
07F8
0FF8
1F38
3C38
3838
7838
7038
7038
7038
F038
FFFE
FFFE
FFFE
0038
0038
0038
0038
0038
ENDCHAR
STARTCHAR 0035
ENCODING 53
SWIDTH 540 0
DWIDTH 15 0
BBX 13 19 1 0
BITMAP
7FF8
7FF8
7FF8
7000
7000
7000
7FC0
7FF0
7FF0
7078
0038
0038
0038
0038
0078
7078
FFF0
7FE0
1FC0
ENDCHAR
STARTCHAR 0036
ENCODING 54
SWIDTH 612 0
DWIDTH 17 0
BBX 15 19 1 0
BITMAP
01E0
03C0
0780
0700
0F00
1FE0
3FF8
3FFC
783C
701E
F00E
F00E
F00E
F00E
701E
783C
3FFC
1FF8
0FF0
ENDCHAR
STARTCHAR 0037
ENCODING 55
SWIDTH 468 0
DWIDTH 13 0
BBX 13 19 1 0
BITMAP
FFF8
FFF0
FFF0
00E0
00E0
01E0
01C0
7FE0
7FE0
7FE0
0780
0700
0F00
0E00
0E00
1E00
1C00
3C00
3800
ENDCHAR
STARTCHAR 0038
ENCODING 56
SWIDTH 540 0
DWIDTH 15 0
BBX 14 20 1 0
BITMAP
0780
1FE0
3FE0
3CF0
3870
3870
38F0
3FE0
3FE0
7FF0
7878
F03C
E01C
E01C
E01C
F03C
F878
7FF8
3FF0
1FE0
ENDCHAR
STARTCHAR 0039
ENCODING 57
SWIDTH 576 0
DWIDTH 16 0
BBX 15 20 1 0
BITMAP
07C0
1FF0
3FF8
7C7C
781C
F01E
E00E
E00E
E00E
F01E
701C
7C7C
3FF8
1FF8
03F0
01E0
01E0
03C0
0780
0F00
ENDCHAR
STARTCHAR 003A
ENCODING 58
SWIDTH 252 0
DWIDTH 7 0
BBX 4 14 2 0
BITMAP
60
F0
F0
F0
60
00
00
00
00
00
E0
F0
F0
F0
ENDCHAR
STARTCHAR 003B
ENCODING 59
SWIDTH 288 0
DWIDTH 8 0
BBX 5 17 2 -3
BITMAP
70
F8
F8
70
20
00
00
00
00
00
00
00
70
60
E0
C0
C0
ENDCHAR
STARTCHAR 003C
ENCODING 60
SWIDTH 540 0
DWIDTH 15 0
BBX 12 11 2 4
BITMAP
0070
03F0
1FC0
7E00
F800
E000
FC00
3F80
07F0
01F0
0030
ENDCHAR
STARTCHAR 003D
ENCODING 61
SWIDTH 540 0
DWIDTH 15 0
BBX 12 8 2 5
BITMAP
FFF0
FFF0
0000
0000
0000
FFF0
FFF0
FFF0
ENDCHAR
STARTCHAR 003E
ENCODING 62
SWIDTH 540 0
DWIDTH 15 0
BBX 12 11 2 4
BITMAP
E000
FC00
3F80
0FE0
01F0
0070
03F0
1FC0
FE00
F800
C000
ENDCHAR
STARTCHAR 003F
ENCODING 63
SWIDTH 432 0
DWIDTH 12 0
BBX 9 20 2 0
BITMAP
3C00
7F00
FF00
E780
4380
0380
0700
0F00
0E00
1C00
1C00
3800
3800
3800
0000
0000
3800
3C00
3C00
3C00
ENDCHAR
STARTCHAR 0040
ENCODING 64
SWIDTH 792 0
DWIDTH 22 0
BBX 19 20 2 0
BITMAP
01F800
0FFE00
1E0780
3801C0
7000C0
60C0E0
E3FC60
C3FC60
C71C60
C71C60
C71860
C718C0
C7FDC0
C3EF80
E08600
600000
300180
1C0380
0FFF00
03FC00
ENDCHAR
STARTCHAR 0041
ENCODING 65
SWIDTH 540 0
DWIDTH 15 0
BBX 14 20 1 0
BITMAP
0F00
1FC0
3FE0
7DF0
7070
F070
F078
F078
F078
F078
F078
F078
F078
F078
F078
F078
F078
FFFC
FFFC
FFFC
ENDCHAR
STARTCHAR 0042
ENCODING 66
SWIDTH 612 0
DWIDTH 17 0
BBX 16 19 1 0
BITMAP
3FF8
3FFC
3FFE
381E
380E
380E
381E
387E
FFFC
FFFC
FFFE
381E
380F
380F
380F
381E
3FFE
3FFC
3FF0
ENDCHAR
STARTCHAR 0043
ENCODING 67
SWIDTH 684 0
DWIDTH 19 0
BBX 18 20 1 0
BITMAP
01F800
07FF00
0FFF80
3F8FC0
3E0380
780100
700000
F00000
F00000
E00000
E00000
F00000
F00000
F00000
780000
7C0100
3E0780
1FFF80
0FFF00
03FE00
ENDCHAR
STARTCHAR 0044
ENCODING 68
SWIDTH 648 0
DWIDTH 18 0
BBX 16 19 2 0
BITMAP
FFC0
FFF0
FFF8
E07C
E03E
E01E
E00E
E00F
E00F
E00F
E00F
E00E
E00E
E01E
E03C
E1FC
FFF8
FFE0
FF80
ENDCHAR
STARTCHAR 0045
ENCODING 69
SWIDTH 504 0
DWIDTH 14 0
BBX 13 19 1 0
BITMAP
7FC0
7FC0
7FC0
7800
7800
7800
7800
7800
FFE0
FFE0
FFE0
7800
7800
7800
7800
7800
7FF8
7FF8
7FF8
ENDCHAR
STARTCHAR 0046
ENCODING 70
SWIDTH 468 0
DWIDTH 13 0
BBX 12 19 1 0
BITMAP
3FF0
3FF0
3FF0
3800
3800
3800
3800
3800
FFE0
FFE0
FFE0
3800
3800
3800
3800
3800
3800
3800
3800
ENDCHAR
STARTCHAR 0047
ENCODING 71
SWIDTH 828 0
DWIDTH 23 0
BBX 22 20 1 0
BITMAP
00F800
07FF00
0FFF80
3F8FC0
3C0380
780100
780000
F00000
F00000
E03FFC
E03FFC
F03FFC
F000F0
F000F0
7800F0
7C01E0
3E07C0
1FFFC0
0FFF00
03FE00
ENDCHAR
STARTCHAR 0048
ENCODING 72
SWIDTH 576 0
DWIDTH 16 0
BBX 14 19 1 0
BITMAP
783C
783C
783C
783C
783C
783C
783C
783C
FFFC
FFFC
FFFC
783C
783C
783C
783C
783C
783C
783C
783C
ENDCHAR
STARTCHAR 0049
ENCODING 73
SWIDTH 216 0
DWIDTH 6 0
BBX 7 22 0 0
BITMAP
20
30
78
FE
78
78
48
00
00
00
78
78
78
78
78
78
78
78
78
78
78
78
ENDCHAR
STARTCHAR 004A
ENCODING 74
SWIDTH 468 0
DWIDTH 13 0
BBX 11 19 1 0
BITMAP
07E0
07E0
07E0
01E0
01E0
01E0
01E0
01E0
01E0
01E0
01E0
01E0
01E0
01E0
21E0
E3C0
FFC0
FF80
7F00
ENDCHAR
STARTCHAR 004B
ENCODING 75
SWIDTH 540 0
DWIDTH 15 0
BBX 13 19 1 0
BITMAP
7870
7870
7870
7870
7870
7870
78F0
FFE0
FFE0
FFF0
FFF8
7878
7838
7838
7838
7838
7838
7838
7838
ENDCHAR
STARTCHAR 004C
ENCODING 76
SWIDTH 432 0
DWIDTH 12 0
BBX 10 19 2 0
BITMAP
E000
E000
E000
E000
E000
E000
E000
E000
E000
E000
E000
E000
E000
E000
E000
E000
FFC0
FFC0
FFC0
ENDCHAR
STARTCHAR 004D
ENCODING 77
SWIDTH 864 0
DWIDTH 24 0
BBX 22 20 1 0
BITMAP
402000
E0301C
F83C1C
FC3E1C
7E3F1C
7FBF9C
7FFFFC
7BF9FC
79F8FC
78F87C
78381C
78381C
78381C
78381C
78381C
78381C
78381C
78381C
78381C
78381C
ENDCHAR
STARTCHAR 004E
ENCODING 78
SWIDTH 540 0
DWIDTH 15 0
BBX 13 20 1 0
BITMAP
4000
E078
F878
FC78
7E78
7FF8
7FF8
73F8
71F8
70F8
7078
7078
7078
7078
7078
7078
7078
7078
7078
7078
ENDCHAR
STARTCHAR 004F
ENCODING 79
SWIDTH 792 0
DWIDTH 22 0
BBX 21 20 1 0
BITMAP
00F800
07FF00
0FFF80
3F8FC0
3E03E0
7800F0
7800F0
F00070
F00078
E00078
E00078
F00078
F00078
F00070
7800F0
7C01E0
3E07E0
1FFFC0
0FFF80
03FE00
ENDCHAR
STARTCHAR 0050
ENCODING 80
SWIDTH 540 0
DWIDTH 15 0
BBX 14 19 1 0
BITMAP
7FF0
7FF8
7FFC
783C
781C
781C
781C
783C
78FC
FFF8
FFF0
FF80
7800
7800
7800
7800
7800
7800
7800
ENDCHAR
STARTCHAR 0051
ENCODING 81
SWIDTH 792 0
DWIDTH 22 0
BBX 21 21 1 -1
BITMAP
00F800
07FF00
0FFF80
3F8FC0
3E03E0
7800F0
7800F0
F00070
F00078
E00078
E00078
F00078
F00078
F00270
7807F0
7C0FE0
3E07E0
1FFFE0
0FFFF0
03FEE0
000040
ENDCHAR
STARTCHAR 0052
ENCODING 82
SWIDTH 576 0
DWIDTH 16 0
BBX 15 19 1 0
BITMAP
7FF0
7FF8
7FFC
781E
781E
780E
781E
781E
FFFC
FFF8
FFF0
FFF8
783C
783C
781C
781C
781C
781C
781C
ENDCHAR
STARTCHAR 0053
ENCODING 83
SWIDTH 504 0
DWIDTH 14 0
BBX 12 20 1 0
BITMAP
0F00
3FC0
7FE0
79F0
70F0
7040
7800
7C00
3E00
1F80
0FC0
03E0
01F0
00F0
2070
F070
F0F0
7FF0
3FE0
1FC0
ENDCHAR
STARTCHAR 0054
ENCODING 84
SWIDTH 504 0
DWIDTH 14 0
BBX 13 19 1 0
BITMAP
FFF8
FFF8
FFF8
0F00
0F00
0F00
0F00
0F00
0F00
0F00
0F00
0F00
0F00
0F00
0F00
0F00
0F00
0F00
0F00
ENDCHAR
STARTCHAR 0055
ENCODING 85
SWIDTH 504 0
DWIDTH 14 0
BBX 12 19 1 0
BITMAP
F070
F070
F070
F070
F070
F070
F070
F070
F070
F070
F070
F070
F070
F070
F070
78F0
7FF0
3FE0
1FC0
ENDCHAR
STARTCHAR 0056
ENCODING 86
SWIDTH 468 0
DWIDTH 13 0
BBX 12 19 0 0
BITMAP
F070
F070
F070
F070
F070
F070
F070
F070
F070
F070
F070
70F0
70F0
78E0
79E0
39E0
3FC0
1F80
0F80
ENDCHAR
STARTCHAR 0057
ENCODING 87
SWIDTH 756 0
DWIDTH 21 0
BBX 21 19 0 0
BITMAP
F07078
F07078
F07078
F07078
F07078
F07078
F07078
F07078
F07070
F07070
F07070
70F070
70F8F0
78F8F0
79F8E0
39FDE0
3FDDC0
1F9FC0
0F8F80
ENDCHAR
STARTCHAR 0058
ENCODING 88
SWIDTH 504 0
DWIDTH 14 0
BBX 13 19 1 0
BITMAP
F078
F078
F078
F078
F070
78F0
7FF0
3FE0
3FE0
7FF0
78F0
7070
F078
F078
F078
F078
F078
F078
F078
ENDCHAR
STARTCHAR 0059
ENCODING 89
SWIDTH 504 0
DWIDTH 14 0
BBX 12 19 1 0
BITMAP
F070
F070
F070
F070
F070
F070
F070
F070
F070
F070
F0F0
7FE0
3FE0
1FC0
0F00
0F00
0F00
0F00
0F00
ENDCHAR
STARTCHAR 005A
ENCODING 90
SWIDTH 504 0
DWIDTH 14 0
BBX 13 19 1 0
BITMAP
FFF8
FFF8
FFF0
00F0
01E0
01C0
03C0
0780
0780
0F00
0E00
1E00
3C00
3C00
7800
7000
FFF0
FFF0
FFF0
ENDCHAR
STARTCHAR 005B
ENCODING 91
SWIDTH 252 0
DWIDTH 7 0
BBX 4 27 2 -4
BITMAP
F0
F0
C0
C0
C0
C0
C0
C0
C0
C0
C0
C0
C0
C0
C0
C0
C0
C0
C0
C0
C0
C0
C0
C0
C0
F0
F0
ENDCHAR
STARTCHAR 005C
ENCODING 92
SWIDTH 396 0
DWIDTH 11 0
BBX 8 20 2 0
BITMAP
C0
E0
E0
60
70
70
70
30
38
38
18
1C
1C
1C
0C
0E
0E
06
07
07
ENDCHAR
STARTCHAR 005D
ENCODING 93
SWIDTH 252 0
DWIDTH 7 0
BBX 4 27 2 -4
BITMAP
F0
F0
70
70
70
70
70
70
70
70
70
70
70
70
70
70
70
70
70
70
70
70
70
70
70
F0
F0
ENDCHAR
STARTCHAR 005E
ENCODING 94
SWIDTH 504 0
DWIDTH 14 0
BBX 10 7 2 10
BITMAP
1E00
1E00
3F00
3380
7380
61C0
E0C0
ENDCHAR
STARTCHAR 005F
ENCODING 95
SWIDTH 540 0
DWIDTH 15 0
BBX 12 2 2 -3
BITMAP
FFF0
FFF0
ENDCHAR
STARTCHAR 0060
ENCODING 96
SWIDTH 144 0
DWIDTH 4 0
BBX 4 4 0 21
BITMAP
E0
60
30
30
ENDCHAR
STARTCHAR 0061
ENCODING 97
SWIDTH 540 0
DWIDTH 15 0
BBX 14 20 1 0
BITMAP
0F00
1FC0
3FE0
7DF0
7070
F070
F078
F078
F078
F078
F078
F078
F078
F078
F078
F078
F078
FFFC
FFFC
FFFC
ENDCHAR
STARTCHAR 0062
ENCODING 98
SWIDTH 612 0
DWIDTH 17 0
BBX 16 19 1 0
BITMAP
3FF8
3FFC
3FFE
381E
380E
380E
381E
387E
FFFC
FFFC
FFFE
381E
380F
380F
380F
381E
3FFE
3FFC
3FF0
ENDCHAR
STARTCHAR 0063
ENCODING 99
SWIDTH 684 0
DWIDTH 19 0
BBX 18 20 1 0
BITMAP
01F800
07FF00
0FFF80
3F8FC0
3E0380
780100
700000
F00000
F00000
E00000
E00000
F00000
F00000
F00000
780000
7C0100
3E0780
1FFF80
0FFF00
03FE00
ENDCHAR
STARTCHAR 0064
ENCODING 100
SWIDTH 648 0
DWIDTH 18 0
BBX 16 19 2 0
BITMAP
FFC0
FFF0
FFF8
E07C
E03E
E01E
E00E
E00F
E00F
E00F
E00F
E00E
E00E
E01E
E03C
E1FC
FFF8
FFE0
FF80
ENDCHAR
STARTCHAR 0065
ENCODING 101
SWIDTH 504 0
DWIDTH 14 0
BBX 13 19 1 0
BITMAP
7FC0
7FC0
7FC0
7800
7800
7800
7800
7800
FFE0
FFE0
FFE0
7800
7800
7800
7800
7800
7FF8
7FF8
7FF8
ENDCHAR
STARTCHAR 0066
ENCODING 102
SWIDTH 468 0
DWIDTH 13 0
BBX 12 19 1 0
BITMAP
3FF0
3FF0
3FF0
3800
3800
3800
3800
3800
FFE0
FFE0
FFE0
3800
3800
3800
3800
3800
3800
3800
3800
ENDCHAR
STARTCHAR 0067
ENCODING 103
SWIDTH 828 0
DWIDTH 23 0
BBX 22 20 1 0
BITMAP
00F800
07FF00
0FFF80
3F8FC0
3C0380
780100
780000
F00000
F00000
E03FFC
E03FFC
F03FFC
F000F0
F000F0
7800F0
7C01E0
3E07C0
1FFFC0
0FFF00
03FE00
ENDCHAR
STARTCHAR 0068
ENCODING 104
SWIDTH 576 0
DWIDTH 16 0
BBX 14 19 1 0
BITMAP
783C
783C
783C
783C
783C
783C
783C
783C
FFFC
FFFC
FFFC
783C
783C
783C
783C
783C
783C
783C
783C
ENDCHAR
STARTCHAR 0069
ENCODING 105
SWIDTH 216 0
DWIDTH 6 0
BBX 7 22 0 0
BITMAP
20
30
78
FE
78
78
48
00
00
00
78
78
78
78
78
78
78
78
78
78
78
78
ENDCHAR
STARTCHAR 006A
ENCODING 106
SWIDTH 468 0
DWIDTH 13 0
BBX 11 19 1 0
BITMAP
07E0
07E0
07E0
01E0
01E0
01E0
01E0
01E0
01E0
01E0
01E0
01E0
01E0
01E0
21E0
E3C0
FFC0
FF80
7F00
ENDCHAR
STARTCHAR 006B
ENCODING 107
SWIDTH 540 0
DWIDTH 15 0
BBX 13 19 1 0
BITMAP
7870
7870
7870
7870
7870
7870
78F0
FFE0
FFE0
FFF0
FFF8
7878
7838
7838
7838
7838
7838
7838
7838
ENDCHAR
STARTCHAR 006C
ENCODING 108
SWIDTH 432 0
DWIDTH 12 0
BBX 10 19 2 0
BITMAP
E000
E000
E000
E000
E000
E000
E000
E000
E000
E000
E000
E000
E000
E000
E000
E000
FFC0
FFC0
FFC0
ENDCHAR
STARTCHAR 006D
ENCODING 109
SWIDTH 864 0
DWIDTH 24 0
BBX 22 20 1 0
BITMAP
402000
E0301C
F83C1C
FC3E1C
7E3F1C
7FBF9C
7FFFFC
7BF9FC
79F8FC
78F87C
78381C
78381C
78381C
78381C
78381C
78381C
78381C
78381C
78381C
78381C
ENDCHAR
STARTCHAR 006E
ENCODING 110
SWIDTH 540 0
DWIDTH 15 0
BBX 13 20 1 0
BITMAP
4000
E078
F878
FC78
7E78
7FF8
7FF8
73F8
71F8
70F8
7078
7078
7078
7078
7078
7078
7078
7078
7078
7078
ENDCHAR
STARTCHAR 006F
ENCODING 111
SWIDTH 792 0
DWIDTH 22 0
BBX 21 20 1 0
BITMAP
00F800
07FF00
0FFF80
3F8FC0
3E03E0
7800F0
7800F0
F00070
F00078
E00078
E00078
F00078
F00078
F00070
7800F0
7C01E0
3E07E0
1FFFC0
0FFF80
03FE00
ENDCHAR
STARTCHAR 0070
ENCODING 112
SWIDTH 540 0
DWIDTH 15 0
BBX 14 19 1 0
BITMAP
7FF0
7FF8
7FFC
783C
781C
781C
781C
783C
78FC
FFF8
FFF0
FF80
7800
7800
7800
7800
7800
7800
7800
ENDCHAR
STARTCHAR 0071
ENCODING 113
SWIDTH 792 0
DWIDTH 22 0
BBX 21 21 1 -1
BITMAP
00F800
07FF00
0FFF80
3F8FC0
3E03E0
7800F0
7800F0
F00070
F00078
E00078
E00078
F00078
F00078
F00270
7807F0
7C0FE0
3E07E0
1FFFE0
0FFFF0
03FEE0
000040
ENDCHAR
STARTCHAR 0072
ENCODING 114
SWIDTH 576 0
DWIDTH 16 0
BBX 15 19 1 0
BITMAP
7FF0
7FF8
7FFC
781E
781E
780E
781E
781E
FFFC
FFF8
FFF0
FFF8
783C
783C
781C
781C
781C
781C
781C
ENDCHAR
STARTCHAR 0073
ENCODING 115
SWIDTH 504 0
DWIDTH 14 0
BBX 12 20 1 0
BITMAP
0F00
3FC0
7FE0
79F0
70F0
7040
7800
7C00
3E00
1F80
0FC0
03E0
01F0
00F0
2070
F070
F0F0
7FF0
3FE0
1FC0
ENDCHAR
STARTCHAR 0074
ENCODING 116
SWIDTH 504 0
DWIDTH 14 0
BBX 13 19 1 0
BITMAP
FFF8
FFF8
FFF8
0F00
0F00
0F00
0F00
0F00
0F00
0F00
0F00
0F00
0F00
0F00
0F00
0F00
0F00
0F00
0F00
ENDCHAR
STARTCHAR 0075
ENCODING 117
SWIDTH 504 0
DWIDTH 14 0
BBX 12 19 1 0
BITMAP
F070
F070
F070
F070
F070
F070
F070
F070
F070
F070
F070
F070
F070
F070
F070
78F0
7FF0
3FE0
1FC0
ENDCHAR
STARTCHAR 0076
ENCODING 118
SWIDTH 468 0
DWIDTH 13 0
BBX 12 19 0 0
BITMAP
F070
F070
F070
F070
F070
F070
F070
F070
F070
F070
F070
70F0
70F0
78E0
79E0
39E0
3FC0
1F80
0F80
ENDCHAR
STARTCHAR 0077
ENCODING 119
SWIDTH 756 0
DWIDTH 21 0
BBX 21 19 0 0
BITMAP
F07078
F07078
F07078
F07078
F07078
F07078
F07078
F07078
F07070
F07070
F07070
70F070
70F8F0
78F8F0
79F8E0
39FDE0
3FDDC0
1F9FC0
0F8F80
ENDCHAR
STARTCHAR 0078
ENCODING 120
SWIDTH 504 0
DWIDTH 14 0
BBX 13 19 1 0
BITMAP
F078
F078
F078
F078
F070
78F0
7FF0
3FE0
3FE0
7FF0
78F0
7070
F078
F078
F078
F078
F078
F078
F078
ENDCHAR
STARTCHAR 0079
ENCODING 121
SWIDTH 504 0
DWIDTH 14 0
BBX 12 19 1 0
BITMAP
F070
F070
F070
F070
F070
F070
F070
F070
F070
F070
F0F0
7FE0
3FE0
1FC0
0F00
0F00
0F00
0F00
0F00
ENDCHAR
STARTCHAR 007A
ENCODING 122
SWIDTH 504 0
DWIDTH 14 0
BBX 13 19 1 0
BITMAP
FFF8
FFF8
FFF0
00F0
01E0
01C0
03C0
0780
0780
0F00
0E00
1E00
3C00
3C00
7800
7000
FFF0
FFF0
FFF0
ENDCHAR
STARTCHAR 007B
ENCODING 123
SWIDTH 324 0
DWIDTH 9 0
BBX 6 27 2 -4
BITMAP
1C
3C
38
70
70
70
70
70
70
70
70
70
E0
C0
E0
70
70
70
70
70
70
70
70
70
30
3C
1C
ENDCHAR
STARTCHAR 007C
ENCODING 124
SWIDTH 144 0
DWIDTH 4 0
BBX 1 23 2 -3
BITMAP
80
80
80
80
80
80
80
80
80
80
80
80
80
80
80
80
80
80
80
80
80
80
80
ENDCHAR
STARTCHAR 007D
ENCODING 125
SWIDTH 324 0
DWIDTH 9 0
BBX 6 27 2 -4
BITMAP
E0
F0
70
30
30
30
30
30
30
30
30
38
3C
1C
3C
38
30
30
30
30
30
30
30
30
70
F0
E0
ENDCHAR
STARTCHAR 007E
ENCODING 126
SWIDTH 540 0
DWIDTH 15 0
BBX 12 4 2 7
BITMAP
F800
FFF0
FFF0
03E0
ENDCHAR
STARTCHAR 00A1
ENCODING 161
SWIDTH 252 0
DWIDTH 7 0
BBX 4 20 2 -3
BITMAP
60
F0
F0
F0
60
00
00
E0
E0
E0
E0
E0
E0
E0
E0
E0
E0
E0
E0
E0
ENDCHAR
STARTCHAR 00A2
ENCODING 162
SWIDTH 504 0
DWIDTH 14 0
BBX 11 17 2 1
BITMAP
0600
0600
1FC0
7FE0
79C0
E000
E000
C000
C000
C000
E000
F0C0
7FE0
3FC0
0F80
0600
0600
ENDCHAR
STARTCHAR 00A3
ENCODING 163
SWIDTH 540 0
DWIDTH 15 0
BBX 12 20 2 0
BITMAP
03E0
0FF0
1FF0
3FF0
7C00
7800
7800
7800
7800
FFC0
FFC0
FFC0
1C00
1E00
1E00
1C00
FC00
FFF0
FFF0
FFF0
ENDCHAR
STARTCHAR 00A4
ENCODING 164
SWIDTH 576 0
DWIDTH 16 0
BBX 13 14 2 2
BITMAP
0010
C738
FFF8
7DF0
7070
6030
E030
E030
6030
7070
78E0
FFF0
EFB8
4010
ENDCHAR
STARTCHAR 00A5
ENCODING 165
SWIDTH 648 0
DWIDTH 18 0
BBX 14 19 2 0
BITMAP
F01C
703C
7838
3878
3C70
1CF0
1EE0
0FE0
0FC0
7FF8
7FF8
7FF8
0380
7FF8
7FF8
0380
0380
0380
0380
ENDCHAR
STARTCHAR 00A6
ENCODING 166
SWIDTH 144 0
DWIDTH 4 0
BBX 1 23 2 -3
BITMAP
80
80
80
80
80
80
80
80
80
00
00
00
00
00
80
80
80
80
80
80
80
80
80
ENDCHAR
STARTCHAR 00A7
ENCODING 167
SWIDTH 468 0
DWIDTH 13 0
BBX 10 23 2 -3
BITMAP
1E00
7F00
7F80
F3C0
E1C0
F000
7800
3E00
3F00
7F80
E3C0
E1C0
E1C0
FFC0
7F80
3E00
0F00
0780
2380
E380
FF80
7F80
3F00
ENDCHAR
STARTCHAR 00A8
ENCODING 168
SWIDTH 396 0
DWIDTH 11 0
BBX 11 4 0 21
BITMAP
71E0
F9E0
F9E0
71E0
ENDCHAR
STARTCHAR 00A9
ENCODING 169
SWIDTH 828 0
DWIDTH 23 0
BBX 20 20 2 0
BITMAP
01F800
0FFE00
1C0380
3801C0
6000C0
61F060
C3FC30
C71830
860030
860030
860030
860030
C70030
C3F830
C3F860
606060
3000C0
380380
0F0F00
07FC00
ENDCHAR
STARTCHAR 00AB
ENCODING 171
SWIDTH 576 0
DWIDTH 16 0
BBX 13 13 2 2
BITMAP
0E38
1E70
1CF0
38E0
71C0
F380
E780
F380
71C0
38E0
1CF0
1E70
0E38
ENDCHAR
STARTCHAR 00AC
ENCODING 172
SWIDTH 540 0
DWIDTH 15 0
BBX 12 7 2 3
BITMAP
FFF0
FFF0
0030
0030
0030
0030
0030
ENDCHAR
STARTCHAR 00AE
ENCODING 174
SWIDTH 504 0
DWIDTH 14 0
BBX 11 11 2 9
BITMAP
1F00
6180
C0C0
9E40
9A60
9E60
9A60
9A40
C0C0
7180
1E00
ENDCHAR
STARTCHAR 00AF
ENCODING 175
SWIDTH 252 0
DWIDTH 7 0
BBX 8 2 0 22
BITMAP
FF
FF
ENDCHAR
STARTCHAR 00B0
ENCODING 176
SWIDTH 324 0
DWIDTH 9 0
BBX 6 7 2 13
BITMAP
70
FC
8C
84
8C
F8
30
ENDCHAR
STARTCHAR 00B1
ENCODING 177
SWIDTH 540 0
DWIDTH 15 0
BBX 12 12 2 3
BITMAP
0600
0600
0600
FFF0
FFF0
FFF0
0600
0600
0600
0000
FFF0
FFF0
ENDCHAR
STARTCHAR 00B4
ENCODING 180
SWIDTH 144 0
DWIDTH 4 0
BBX 4 4 0 21
BITMAP
30
70
60
C0
ENDCHAR
STARTCHAR 00B6
ENCODING 182
SWIDTH 504 0
DWIDTH 14 0
BBX 11 23 2 -3
BITMAP
0660
3E60
7E60
FE60
FE60
FE60
FE60
FE60
FE60
7E60
3E60
0660
0660
0660
0660
0660
0660
0660
0660
0660
0660
0660
0660
ENDCHAR
STARTCHAR 00B7
ENCODING 183
SWIDTH 252 0
DWIDTH 7 0
BBX 4 5 2 5
BITMAP
40
F0
F0
F0
60
ENDCHAR
STARTCHAR 00B8
ENCODING 184
SWIDTH 216 0
DWIDTH 6 0
BBX 6 6 0 -6
BITMAP
18
18
0C
4C
FC
78
ENDCHAR
STARTCHAR 00BB
ENCODING 187
SWIDTH 576 0
DWIDTH 16 0
BBX 13 13 2 2
BITMAP
E780
F380
71C0
38E0
1CF0
1E70
0E38
1E70
1C70
38E0
71C0
F380
E380
ENDCHAR
STARTCHAR 00BF
ENCODING 191
SWIDTH 432 0
DWIDTH 12 0
BBX 9 20 2 -3
BITMAP
1C00
1E00
1E00
1E00
0000
0000
0000
1C00
1C00
1C00
3C00
3800
7000
F000
E000
E200
E380
FF80
FF00
7E00
ENDCHAR
STARTCHAR 00C0
ENCODING 192
SWIDTH 540 0
DWIDTH 15 0
BBX 14 25 1 0
BITMAP
0C00
0E00
0600
0300
0000
0F00
1FC0
3FE0
7DF0
7070
F070
F078
F078
F078
F078
F078
F078
F078
F078
F078
F078
F078
FFFC
FFFC
FFFC
ENDCHAR
STARTCHAR 00C1
ENCODING 193
SWIDTH 540 0
DWIDTH 15 0
BBX 14 25 1 0
BITMAP
01C0
0380
0300
0600
0000
0F00
1FC0
3FE0
7DF0
7070
F070
F078
F078
F078
F078
F078
F078
F078
F078
F078
F078
F078
FFFC
FFFC
FFFC
ENDCHAR
STARTCHAR 00C2
ENCODING 194
SWIDTH 540 0
DWIDTH 15 0
BBX 14 25 1 0
BITMAP
0F80
0F80
1DC0
38E0
0000
0F00
1FC0
3FE0
7DF0
7070
F070
F078
F078
F078
F078
F078
F078
F078
F078
F078
F078
F078
FFFC
FFFC
FFFC
ENDCHAR
STARTCHAR 00C3
ENCODING 195
SWIDTH 540 0
DWIDTH 15 0
BBX 14 25 1 0
BITMAP
1C00
1F80
1780
0000
0000
0F00
1FC0
3FE0
7DF0
7070
F070
F078
F078
F078
F078
F078
F078
F078
F078
F078
F078
F078
FFFC
FFFC
FFFC
ENDCHAR
STARTCHAR 00C4
ENCODING 196
SWIDTH 540 0
DWIDTH 15 0
BBX 14 25 1 0
BITMAP
38F0
7CF0
7CF0
38F0
0000
0F00
1FC0
3FE0
7DF0
7070
F070
F078
F078
F078
F078
F078
F078
F078
F078
F078
F078
F078
FFFC
FFFC
FFFC
ENDCHAR
STARTCHAR 00C5
ENCODING 197
SWIDTH 540 0
DWIDTH 15 0
BBX 14 27 1 0
BITMAP
0600
0F80
0880
0880
0F80
0700
0000
0F00
1FC0
3FE0
7DF0
7070
F070
F078
F078
F078
F078
F078
F078
F078
F078
F078
F078
F078
FFFC
FFFC
FFFC
ENDCHAR
STARTCHAR 00C7
ENCODING 199
SWIDTH 684 0
DWIDTH 19 0
BBX 18 26 1 -6
BITMAP
01F800
07FF00
0FFF80
3F8FC0
3E0380
780100
700000
F00000
F00000
E00000
E00000
F00000
F00000
F00000
780000
7C0100
3E0780
1FFF80
0FFF00
03FE00
006000
006000
003000
003000
03F000
01E000
ENDCHAR
STARTCHAR 00C8
ENCODING 200
SWIDTH 504 0
DWIDTH 14 0
BBX 13 25 1 0
BITMAP
1800
1C00
0C00
0600
0000
0000
7FC0
7FC0
7FC0
7800
7800
7800
7800
7800
FFE0
FFE0
FFE0
7800
7800
7800
7800
7800
7FF8
7FF8
7FF8
ENDCHAR
STARTCHAR 00C9
ENCODING 201
SWIDTH 504 0
DWIDTH 14 0
BBX 13 25 1 0
BITMAP
0380
0700
0600
0C00
0000
0000
7FC0
7FC0
7FC0
7800
7800
7800
7800
7800
FFE0
FFE0
FFE0
7800
7800
7800
7800
7800
7FF8
7FF8
7FF8
ENDCHAR
STARTCHAR 00CA
ENCODING 202
SWIDTH 504 0
DWIDTH 14 0
BBX 13 25 1 0
BITMAP
0F00
1F00
3B80
71C0
0000
0000
7FC0
7FC0
7FC0
7800
7800
7800
7800
7800
FFE0
FFE0
FFE0
7800
7800
7800
7800
7800
7FF8
7FF8
7FF8
ENDCHAR
STARTCHAR 00CB
ENCODING 203
SWIDTH 504 0
DWIDTH 14 0
BBX 13 25 1 0
BITMAP
71E0
F9E0
F9E0
71E0
0000
0000
7FC0
7FC0
7FC0
7800
7800
7800
7800
7800
FFE0
FFE0
FFE0
7800
7800
7800
7800
7800
7FF8
7FF8
7FF8
ENDCHAR
STARTCHAR 00CC
ENCODING 204
SWIDTH 216 0
DWIDTH 6 0
BBX 4 17 1 0
BITMAP
C0
E0
60
00
00
70
70
70
70
70
70
70
70
70
70
70
70
ENDCHAR
STARTCHAR 00CD
ENCODING 205
SWIDTH 216 0
DWIDTH 6 0
BBX 4 17 2 0
BITMAP
70
60
C0
00
00
E0
E0
E0
E0
E0
E0
E0
E0
E0
E0
E0
E0
ENDCHAR
STARTCHAR 00CE
ENCODING 206
SWIDTH 216 0
DWIDTH 6 0
BBX 8 17 -1 0
BITMAP
3E
7E
E7
00
00
1C
1C
1C
1C
1C
1C
1C
1C
1C
1C
1C
1C
ENDCHAR
STARTCHAR 00CF
ENCODING 207
SWIDTH 216 0
DWIDTH 6 0
BBX 11 18 -2 0
BITMAP
60C0
F1E0
F3E0
F1E0
60C0
0000
0E00
0E00
0E00
0E00
0E00
0E00
0E00
0E00
0E00
0E00
0E00
0E00
ENDCHAR
STARTCHAR 00D1
ENCODING 209
SWIDTH 540 0
DWIDTH 15 0
BBX 13 25 1 0
BITMAP
0C00
1FC0
17C0
0000
0000
4000
E078
F878
FC78
7E78
7FF8
7FF8
73F8
71F8
70F8
7078
7078
7078
7078
7078
7078
7078
7078
7078
7078
ENDCHAR
STARTCHAR 00D2
ENCODING 210
SWIDTH 792 0
DWIDTH 22 0
BBX 21 25 1 0
BITMAP
01C000
00E000
006000
003000
000000
00F800
07FF00
0FFF80
3F8FC0
3E03E0
7800F0
7800F0
F00070
F00078
E00078
E00078
F00078
F00078
F00070
7800F0
7C01E0
3E07E0
1FFFC0
0FFF80
03FE00
ENDCHAR
STARTCHAR 00D3
ENCODING 211
SWIDTH 792 0
DWIDTH 22 0
BBX 21 25 1 0
BITMAP
001800
003800
003000
006000
000000
00F800
07FF00
0FFF80
3F8FC0
3E03E0
7800F0
7800F0
F00070
F00078
E00078
E00078
F00078
F00078
F00070
7800F0
7C01E0
3E07E0
1FFFC0
0FFF80
03FE00
ENDCHAR
STARTCHAR 00D4
ENCODING 212
SWIDTH 792 0
DWIDTH 22 0
BBX 21 25 1 0
BITMAP
00F000
00F800
01DC00
038E00
000000
00F800
07FF00
0FFF80
3F8FC0
3E03E0
7800F0
7800F0
F00070
F00078
E00078
E00078
F00078
F00078
F00070
7800F0
7C01E0
3E07E0
1FFFC0
0FFF80
03FE00
ENDCHAR
STARTCHAR 00D5
ENCODING 213
SWIDTH 792 0
DWIDTH 22 0
BBX 21 25 1 0
BITMAP
01C000
01F800
017800
000000
000000
00F800
07FF00
0FFF80
3F8FC0
3E03E0
7800F0
7800F0
F00070
F00078
E00078
E00078
F00078
F00078
F00070
7800F0
7C01E0
3E07E0
1FFFC0
0FFF80
03FE00
ENDCHAR
STARTCHAR 00D6
ENCODING 214
SWIDTH 792 0
DWIDTH 22 0
BBX 21 25 1 0
BITMAP
038E00
07CF00
07CF00
038F00
000000
00F800
07FF00
0FFF80
3F8FC0
3E03E0
7800F0
7800F0
F00070
F00078
E00078
E00078
F00078
F00078
F00070
7800F0
7C01E0
3E07E0
1FFFC0
0FFF80
03FE00
ENDCHAR
STARTCHAR 00D7
ENCODING 215
SWIDTH 504 0
DWIDTH 14 0
BBX 11 12 2 3
BITMAP
4040
E0E0
F1E0
7BC0
3F80
1F00
1F00
3F80
7BC0
F1E0
E0E0
4040
ENDCHAR
STARTCHAR 00D8
ENCODING 216
SWIDTH 792 0
DWIDTH 22 0
BBX 21 21 1 0
BITMAP
01F860
07FFE0
1FFFC0
3F9FC0
7C07E0
7807E0
F00EF0
F01C70
E03870
E07078
E0E078
E1E078
F1C070
F380F0
7F00F0
7E01E0
3E07C0
3FFFC0
7FFF00
F3FE00
200000
ENDCHAR
STARTCHAR 00D9
ENCODING 217
SWIDTH 504 0
DWIDTH 14 0
BBX 12 25 1 0
BITMAP
1C00
0E00
0600
0300
0000
0000
F070
F070
F070
F070
F070
F070
F070
F070
F070
F070
F070
F070
F070
F070
F070
78F0
7FF0
3FE0
1FC0
ENDCHAR
STARTCHAR 00DA
ENCODING 218
SWIDTH 504 0
DWIDTH 14 0
BBX 12 25 1 0
BITMAP
0180
0380
0300
0600
0000
0000
F070
F070
F070
F070
F070
F070
F070
F070
F070
F070
F070
F070
F070
F070
F070
78F0
7FF0
3FE0
1FC0
ENDCHAR
STARTCHAR 00DB
ENCODING 219
SWIDTH 504 0
DWIDTH 14 0
BBX 12 25 1 0
BITMAP
0F00
0F80
1DC0
38E0
0000
0000
F070
F070
F070
F070
F070
F070
F070
F070
F070
F070
F070
F070
F070
F070
F070
78F0
7FF0
3FE0
1FC0
ENDCHAR
STARTCHAR 00DC
ENCODING 220
SWIDTH 504 0
DWIDTH 14 0
BBX 12 25 1 0
BITMAP
38E0
78F0
78F0
38E0
0000
0000
F070
F070
F070
F070
F070
F070
F070
F070
F070
F070
F070
F070
F070
F070
F070
78F0
7FF0
3FE0
1FC0
ENDCHAR
STARTCHAR 00DD
ENCODING 221
SWIDTH 504 0
DWIDTH 14 0
BBX 12 25 1 0
BITMAP
0180
0380
0300
0600
0000
0000
F070
F070
F070
F070
F070
F070
F070
F070
F070
F070
F0F0
7FE0
3FE0
1FC0
0F00
0F00
0F00
0F00
0F00
ENDCHAR
STARTCHAR 00E0
ENCODING 224
SWIDTH 540 0
DWIDTH 15 0
BBX 14 25 1 0
BITMAP
0C00
0E00
0600
0300
0000
0F00
1FC0
3FE0
7DF0
7070
F070
F078
F078
F078
F078
F078
F078
F078
F078
F078
F078
F078
FFFC
FFFC
FFFC
ENDCHAR
STARTCHAR 00E1
ENCODING 225
SWIDTH 540 0
DWIDTH 15 0
BBX 14 25 1 0
BITMAP
01C0
0380
0300
0600
0000
0F00
1FC0
3FE0
7DF0
7070
F070
F078
F078
F078
F078
F078
F078
F078
F078
F078
F078
F078
FFFC
FFFC
FFFC
ENDCHAR
STARTCHAR 00E2
ENCODING 226
SWIDTH 540 0
DWIDTH 15 0
BBX 14 25 1 0
BITMAP
0F80
0F80
1DC0
38E0
0000
0F00
1FC0
3FE0
7DF0
7070
F070
F078
F078
F078
F078
F078
F078
F078
F078
F078
F078
F078
FFFC
FFFC
FFFC
ENDCHAR
STARTCHAR 00E3
ENCODING 227
SWIDTH 540 0
DWIDTH 15 0
BBX 14 25 1 0
BITMAP
1C00
1F80
1780
0000
0000
0F00
1FC0
3FE0
7DF0
7070
F070
F078
F078
F078
F078
F078
F078
F078
F078
F078
F078
F078
FFFC
FFFC
FFFC
ENDCHAR
STARTCHAR 00E4
ENCODING 228
SWIDTH 540 0
DWIDTH 15 0
BBX 14 25 1 0
BITMAP
38F0
7CF0
7CF0
38F0
0000
0F00
1FC0
3FE0
7DF0
7070
F070
F078
F078
F078
F078
F078
F078
F078
F078
F078
F078
F078
FFFC
FFFC
FFFC
ENDCHAR
STARTCHAR 00E5
ENCODING 229
SWIDTH 540 0
DWIDTH 15 0
BBX 14 27 1 0
BITMAP
0600
0F80
0880
0880
0F80
0700
0000
0F00
1FC0
3FE0
7DF0
7070
F070
F078
F078
F078
F078
F078
F078
F078
F078
F078
F078
F078
FFFC
FFFC
FFFC
ENDCHAR
STARTCHAR 00E7
ENCODING 231
SWIDTH 684 0
DWIDTH 19 0
BBX 18 26 1 -6
BITMAP
01F800
07FF00
0FFF80
3F8FC0
3E0380
780100
700000
F00000
F00000
E00000
E00000
F00000
F00000
F00000
780000
7C0100
3E0780
1FFF80
0FFF00
03FE00
006000
006000
003000
003000
03F000
01E000
ENDCHAR
STARTCHAR 00E8
ENCODING 232
SWIDTH 504 0
DWIDTH 14 0
BBX 13 25 1 0
BITMAP
1800
1C00
0C00
0600
0000
0000
7FC0
7FC0
7FC0
7800
7800
7800
7800
7800
FFE0
FFE0
FFE0
7800
7800
7800
7800
7800
7FF8
7FF8
7FF8
ENDCHAR
STARTCHAR 00E9
ENCODING 233
SWIDTH 504 0
DWIDTH 14 0
BBX 13 25 1 0
BITMAP
0380
0700
0600
0C00
0000
0000
7FC0
7FC0
7FC0
7800
7800
7800
7800
7800
FFE0
FFE0
FFE0
7800
7800
7800
7800
7800
7FF8
7FF8
7FF8
ENDCHAR
STARTCHAR 00EA
ENCODING 234
SWIDTH 504 0
DWIDTH 14 0
BBX 13 25 1 0
BITMAP
0F00
1F00
3B80
71C0
0000
0000
7FC0
7FC0
7FC0
7800
7800
7800
7800
7800
FFE0
FFE0
FFE0
7800
7800
7800
7800
7800
7FF8
7FF8
7FF8
ENDCHAR
STARTCHAR 00EB
ENCODING 235
SWIDTH 504 0
DWIDTH 14 0
BBX 13 25 1 0
BITMAP
71E0
F9E0
F9E0
71E0
0000
0000
7FC0
7FC0
7FC0
7800
7800
7800
7800
7800
FFE0
FFE0
FFE0
7800
7800
7800
7800
7800
7FF8
7FF8
7FF8
ENDCHAR
STARTCHAR 00EC
ENCODING 236
SWIDTH 216 0
DWIDTH 6 0
BBX 4 17 1 0
BITMAP
C0
E0
60
00
00
70
70
70
70
70
70
70
70
70
70
70
70
ENDCHAR
STARTCHAR 00ED
ENCODING 237
SWIDTH 216 0
DWIDTH 6 0
BBX 4 17 2 0
BITMAP
70
60
C0
00
00
E0
E0
E0
E0
E0
E0
E0
E0
E0
E0
E0
E0
ENDCHAR
STARTCHAR 00EE
ENCODING 238
SWIDTH 216 0
DWIDTH 6 0
BBX 8 17 -1 0
BITMAP
3E
7E
E7
00
00
1C
1C
1C
1C
1C
1C
1C
1C
1C
1C
1C
1C
ENDCHAR
STARTCHAR 00EF
ENCODING 239
SWIDTH 216 0
DWIDTH 6 0
BBX 11 18 -2 0
BITMAP
60C0
F1E0
F3E0
F1E0
60C0
0000
0E00
0E00
0E00
0E00
0E00
0E00
0E00
0E00
0E00
0E00
0E00
0E00
ENDCHAR
STARTCHAR 00F1
ENCODING 241
SWIDTH 540 0
DWIDTH 15 0
BBX 13 25 1 0
BITMAP
0C00
1FC0
17C0
0000
0000
4000
E078
F878
FC78
7E78
7FF8
7FF8
73F8
71F8
70F8
7078
7078
7078
7078
7078
7078
7078
7078
7078
7078
ENDCHAR
STARTCHAR 00F2
ENCODING 242
SWIDTH 792 0
DWIDTH 22 0
BBX 21 25 1 0
BITMAP
01C000
00E000
006000
003000
000000
00F800
07FF00
0FFF80
3F8FC0
3E03E0
7800F0
7800F0
F00070
F00078
E00078
E00078
F00078
F00078
F00070
7800F0
7C01E0
3E07E0
1FFFC0
0FFF80
03FE00
ENDCHAR
STARTCHAR 00F3
ENCODING 243
SWIDTH 792 0
DWIDTH 22 0
BBX 21 25 1 0
BITMAP
001800
003800
003000
006000
000000
00F800
07FF00
0FFF80
3F8FC0
3E03E0
7800F0
7800F0
F00070
F00078
E00078
E00078
F00078
F00078
F00070
7800F0
7C01E0
3E07E0
1FFFC0
0FFF80
03FE00
ENDCHAR
STARTCHAR 00F4
ENCODING 244
SWIDTH 792 0
DWIDTH 22 0
BBX 21 25 1 0
BITMAP
00F000
00F800
01DC00
038E00
000000
00F800
07FF00
0FFF80
3F8FC0
3E03E0
7800F0
7800F0
F00070
F00078
E00078
E00078
F00078
F00078
F00070
7800F0
7C01E0
3E07E0
1FFFC0
0FFF80
03FE00
ENDCHAR
STARTCHAR 00F5
ENCODING 245
SWIDTH 792 0
DWIDTH 22 0
BBX 21 25 1 0
BITMAP
01C000
01F800
017800
000000
000000
00F800
07FF00
0FFF80
3F8FC0
3E03E0
7800F0
7800F0
F00070
F00078
E00078
E00078
F00078
F00078
F00070
7800F0
7C01E0
3E07E0
1FFFC0
0FFF80
03FE00
ENDCHAR
STARTCHAR 00F6
ENCODING 246
SWIDTH 792 0
DWIDTH 22 0
BBX 21 25 1 0
BITMAP
038E00
07CF00
07CF00
038F00
000000
00F800
07FF00
0FFF80
3F8FC0
3E03E0
7800F0
7800F0
F00070
F00078
E00078
E00078
F00078
F00078
F00070
7800F0
7C01E0
3E07E0
1FFFC0
0FFF80
03FE00
ENDCHAR
STARTCHAR 00F7
ENCODING 247
SWIDTH 540 0
DWIDTH 15 0
BBX 12 13 2 3
BITMAP
0F00
0F00
0E00
0000
0000
FFF0
FFF0
0000
0000
0600
0F00
0F00
0600
ENDCHAR
STARTCHAR 00F8
ENCODING 248
SWIDTH 792 0
DWIDTH 22 0
BBX 21 21 1 0
BITMAP
01F860
07FFE0
1FFFC0
3F9FC0
7C07E0
7807E0
F00EF0
F01C70
E03870
E07078
E0E078
E1E078
F1C070
F380F0
7F00F0
7E01E0
3E07C0
3FFFC0
7FFF00
F3FE00
200000
ENDCHAR
STARTCHAR 00F9
ENCODING 249
SWIDTH 504 0
DWIDTH 14 0
BBX 12 25 1 0
BITMAP
1C00
0E00
0600
0300
0000
0000
F070
F070
F070
F070
F070
F070
F070
F070
F070
F070
F070
F070
F070
F070
F070
78F0
7FF0
3FE0
1FC0
ENDCHAR
STARTCHAR 00FA
ENCODING 250
SWIDTH 504 0
DWIDTH 14 0
BBX 12 25 1 0
BITMAP
0180
0380
0300
0600
0000
0000
F070
F070
F070
F070
F070
F070
F070
F070
F070
F070
F070
F070
F070
F070
F070
78F0
7FF0
3FE0
1FC0
ENDCHAR
STARTCHAR 00FB
ENCODING 251
SWIDTH 504 0
DWIDTH 14 0
BBX 12 25 1 0
BITMAP
0F00
0F80
1DC0
38E0
0000
0000
F070
F070
F070
F070
F070
F070
F070
F070
F070
F070
F070
F070
F070
F070
F070
78F0
7FF0
3FE0
1FC0
ENDCHAR
STARTCHAR 00FC
ENCODING 252
SWIDTH 504 0
DWIDTH 14 0
BBX 12 25 1 0
BITMAP
38E0
78F0
78F0
38E0
0000
0000
F070
F070
F070
F070
F070
F070
F070
F070
F070
F070
F070
F070
F070
F070
F070
78F0
7FF0
3FE0
1FC0
ENDCHAR
STARTCHAR 00FD
ENCODING 253
SWIDTH 504 0
DWIDTH 14 0
BBX 12 25 1 0
BITMAP
0180
0380
0300
0600
0000
0000
F070
F070
F070
F070
F070
F070
F070
F070
F070
F070
F0F0
7FE0
3FE0
1FC0
0F00
0F00
0F00
0F00
0F00
ENDCHAR
STARTCHAR 00FF
ENCODING 255
SWIDTH 504 0
DWIDTH 14 0
BBX 12 25 1 0
BITMAP
78E0
79F0
79F0
78E0
0000
0000
F070
F070
F070
F070
F070
F070
F070
F070
F070
F070
F0F0
7FE0
3FE0
1FC0
0F00
0F00
0F00
0F00
0F00
ENDCHAR
STARTCHAR 0100
ENCODING 256
SWIDTH 540 0
DWIDTH 15 0
BBX 14 24 1 0
BITMAP
1FC0
1FC0
0000
0000
0F00
1FC0
3FE0
7DF0
7070
F070
F078
F078
F078
F078
F078
F078
F078
F078
F078
F078
F078
FFFC
FFFC
FFFC
ENDCHAR
STARTCHAR 0101
ENCODING 257
SWIDTH 540 0
DWIDTH 15 0
BBX 14 24 1 0
BITMAP
1FC0
1FC0
0000
0000
0F00
1FC0
3FE0
7DF0
7070
F070
F078
F078
F078
F078
F078
F078
F078
F078
F078
F078
F078
FFFC
FFFC
FFFC
ENDCHAR
STARTCHAR 0102
ENCODING 258
SWIDTH 540 0
DWIDTH 15 0
BBX 14 25 1 0
BITMAP
18C0
18C0
1FC0
0700
0000
0F00
1FC0
3FE0
7DF0
7070
F070
F078
F078
F078
F078
F078
F078
F078
F078
F078
F078
F078
FFFC
FFFC
FFFC
ENDCHAR
STARTCHAR 0103
ENCODING 259
SWIDTH 540 0
DWIDTH 15 0
BBX 14 25 1 0
BITMAP
18C0
18C0
1FC0
0700
0000
0F00
1FC0
3FE0
7DF0
7070
F070
F078
F078
F078
F078
F078
F078
F078
F078
F078
F078
F078
FFFC
FFFC
FFFC
ENDCHAR
STARTCHAR 0104
ENCODING 260
SWIDTH 540 0
DWIDTH 15 0
BBX 15 25 1 -5
BITMAP
0F00
1FC0
3FE0
7DF0
7070
F070
F078
F078
F078
F078
F078
F078
F078
F078
F078
F078
F078
FFFC
FFFC
FFFC
0018
0030
0020
0036
003E
ENDCHAR
STARTCHAR 0105
ENCODING 261
SWIDTH 540 0
DWIDTH 15 0
BBX 15 25 1 -5
BITMAP
0F00
1FC0
3FE0
7DF0
7070
F070
F078
F078
F078
F078
F078
F078
F078
F078
F078
F078
F078
FFFC
FFFC
FFFC
0018
0030
0020
0036
003E
ENDCHAR
STARTCHAR 0106
ENCODING 262
SWIDTH 684 0
DWIDTH 19 0
BBX 18 25 1 0
BITMAP
001800
003800
003000
006000
000000
01F800
07FF00
0FFF80
3F8FC0
3E0380
780100
700000
F00000
F00000
E00000
E00000
F00000
F00000
F00000
780000
7C0100
3E0780
1FFF80
0FFF00
03FE00
ENDCHAR
STARTCHAR 0107
ENCODING 263
SWIDTH 684 0
DWIDTH 19 0
BBX 18 25 1 0
BITMAP
001800
003800
003000
006000
000000
01F800
07FF00
0FFF80
3F8FC0
3E0380
780100
700000
F00000
F00000
E00000
E00000
F00000
F00000
F00000
780000
7C0100
3E0780
1FFF80
0FFF00
03FE00
ENDCHAR
STARTCHAR 010A
ENCODING 266
SWIDTH 684 0
DWIDTH 19 0
BBX 18 26 1 0
BITMAP
006000
00F000
00F800
00F000
006000
000000
01F800
07FF00
0FFF80
3F8FC0
3E0380
780100
700000
F00000
F00000
E00000
E00000
F00000
F00000
F00000
780000
7C0100
3E0780
1FFF80
0FFF00
03FE00
ENDCHAR
STARTCHAR 010B
ENCODING 267
SWIDTH 684 0
DWIDTH 19 0
BBX 18 26 1 0
BITMAP
006000
00F000
00F800
00F000
006000
000000
01F800
07FF00
0FFF80
3F8FC0
3E0380
780100
700000
F00000
F00000
E00000
E00000
F00000
F00000
F00000
780000
7C0100
3E0780
1FFF80
0FFF00
03FE00
ENDCHAR
STARTCHAR 010C
ENCODING 268
SWIDTH 684 0
DWIDTH 19 0
BBX 18 25 1 0
BITMAP
039C00
01DC00
00F800
00F000
000000
01F800
07FF00
0FFF80
3F8FC0
3E0380
780100
700000
F00000
F00000
E00000
E00000
F00000
F00000
F00000
780000
7C0100
3E0780
1FFF80
0FFF00
03FE00
ENDCHAR
STARTCHAR 010D
ENCODING 269
SWIDTH 684 0
DWIDTH 19 0
BBX 18 25 1 0
BITMAP
039C00
01DC00
00F800
00F000
000000
01F800
07FF00
0FFF80
3F8FC0
3E0380
780100
700000
F00000
F00000
E00000
E00000
F00000
F00000
F00000
780000
7C0100
3E0780
1FFF80
0FFF00
03FE00
ENDCHAR
STARTCHAR 010E
ENCODING 270
SWIDTH 648 0
DWIDTH 18 0
BBX 16 25 2 0
BITMAP
39C0
1B80
1F00
0F00
0000
0000
FFC0
FFF0
FFF8
E07C
E03E
E01E
E00E
E00F
E00F
E00F
E00F
E00E
E00E
E01E
E03C
E1FC
FFF8
FFE0
FF80
ENDCHAR
STARTCHAR 010F
ENCODING 271
SWIDTH 648 0
DWIDTH 18 0
BBX 16 25 2 0
BITMAP
39C0
1B80
1F00
0F00
0000
0000
FFC0
FFF0
FFF8
E07C
E03E
E01E
E00E
E00F
E00F
E00F
E00F
E00E
E00E
E01E
E03C
E1FC
FFF8
FFE0
FF80
ENDCHAR
STARTCHAR 0110
ENCODING 272
SWIDTH 684 0
DWIDTH 19 0
BBX 18 19 1 0
BITMAP
7FF000
7FFC00
7FFE00
781F00
780F00
780780
780380
780380
FF83C0
FF83C0
FF8380
780380
780780
780780
780F00
787F00
7FFE00
7FF800
7FE000
ENDCHAR
STARTCHAR 0111
ENCODING 273
SWIDTH 684 0
DWIDTH 19 0
BBX 18 19 1 0
BITMAP
7FF000
7FFC00
7FFE00
781F00
780F00
780780
780380
780380
FF83C0
FF83C0
FF8380
780380
780780
780780
780F00
787F00
7FFE00
7FF800
7FE000
ENDCHAR
STARTCHAR 0112
ENCODING 274
SWIDTH 504 0
DWIDTH 14 0
BBX 13 24 1 0
BITMAP
3FC0
3FC0
0000
0000
0000
7FC0
7FC0
7FC0
7800
7800
7800
7800
7800
FFE0
FFE0
FFE0
7800
7800
7800
7800
7800
7FF8
7FF8
7FF8
ENDCHAR
STARTCHAR 0113
ENCODING 275
SWIDTH 504 0
DWIDTH 14 0
BBX 13 24 1 0
BITMAP
3FC0
3FC0
0000
0000
0000
7FC0
7FC0
7FC0
7800
7800
7800
7800
7800
FFE0
FFE0
FFE0
7800
7800
7800
7800
7800
7FF8
7FF8
7FF8
ENDCHAR
STARTCHAR 0116
ENCODING 278
SWIDTH 504 0
DWIDTH 14 0
BBX 13 26 1 0
BITMAP
0600
0F00
1F00
0F00
0600
0000
0000
7FC0
7FC0
7FC0
7800
7800
7800
7800
7800
FFE0
FFE0
FFE0
7800
7800
7800
7800
7800
7FF8
7FF8
7FF8
ENDCHAR
STARTCHAR 0117
ENCODING 279
SWIDTH 504 0
DWIDTH 14 0
BBX 13 26 1 0
BITMAP
0600
0F00
1F00
0F00
0600
0000
0000
7FC0
7FC0
7FC0
7800
7800
7800
7800
7800
FFE0
FFE0
FFE0
7800
7800
7800
7800
7800
7FF8
7FF8
7FF8
ENDCHAR
STARTCHAR 0118
ENCODING 280
SWIDTH 504 0
DWIDTH 14 0
BBX 14 24 1 -5
BITMAP
7FC0
7FC0
7FC0
7800
7800
7800
7800
7800
FFE0
FFE0
FFE0
7800
7800
7800
7800
7800
7FF8
7FF8
7FF8
0070
00C0
00C0
00EC
007C
ENDCHAR
STARTCHAR 0119
ENCODING 281
SWIDTH 504 0
DWIDTH 14 0
BBX 14 24 1 -5
BITMAP
7FC0
7FC0
7FC0
7800
7800
7800
7800
7800
FFE0
FFE0
FFE0
7800
7800
7800
7800
7800
7FF8
7FF8
7FF8
0070
00C0
00C0
00EC
007C
ENDCHAR
STARTCHAR 011A
ENCODING 282
SWIDTH 504 0
DWIDTH 14 0
BBX 13 25 1 0
BITMAP
31C0
3B80
1F00
0E00
0000
0000
7FC0
7FC0
7FC0
7800
7800
7800
7800
7800
FFE0
FFE0
FFE0
7800
7800
7800
7800
7800
7FF8
7FF8
7FF8
ENDCHAR
STARTCHAR 011B
ENCODING 283
SWIDTH 504 0
DWIDTH 14 0
BBX 13 25 1 0
BITMAP
31C0
3B80
1F00
0E00
0000
0000
7FC0
7FC0
7FC0
7800
7800
7800
7800
7800
FFE0
FFE0
FFE0
7800
7800
7800
7800
7800
7FF8
7FF8
7FF8
ENDCHAR
STARTCHAR 011E
ENCODING 286
SWIDTH 828 0
DWIDTH 23 0
BBX 22 25 1 0
BITMAP
030C00
039C00
01F800
00F000
000000
00F800
07FF00
0FFF80
3F8FC0
3C0380
780100
780000
F00000
F00000
E03FFC
E03FFC
F03FFC
F000F0
F000F0
7800F0
7C01E0
3E07C0
1FFFC0
0FFF00
03FE00
ENDCHAR
STARTCHAR 011F
ENCODING 287
SWIDTH 828 0
DWIDTH 23 0
BBX 22 25 1 0
BITMAP
030C00
039C00
01F800
00F000
000000
00F800
07FF00
0FFF80
3F8FC0
3C0380
780100
780000
F00000
F00000
E03FFC
E03FFC
F03FFC
F000F0
F000F0
7800F0
7C01E0
3E07C0
1FFFC0
0FFF00
03FE00
ENDCHAR
STARTCHAR 0120
ENCODING 288
SWIDTH 828 0
DWIDTH 23 0
BBX 22 26 1 0
BITMAP
006000
00F000
00F800
00F000
006000
000000
00F800
07FF00
0FFF80
3F8FC0
3C0380
780100
780000
F00000
F00000
E03FFC
E03FFC
F03FFC
F000F0
F000F0
7800F0
7C01E0
3E07C0
1FFFC0
0FFF00
03FE00
ENDCHAR
STARTCHAR 0121
ENCODING 289
SWIDTH 828 0
DWIDTH 23 0
BBX 22 26 1 0
BITMAP
006000
00F000
00F800
00F000
006000
000000
00F800
07FF00
0FFF80
3F8FC0
3C0380
780100
780000
F00000
F00000
E03FFC
E03FFC
F03FFC
F000F0
F000F0
7800F0
7C01E0
3E07C0
1FFFC0
0FFF00
03FE00
ENDCHAR
STARTCHAR 0124
ENCODING 292
SWIDTH 576 0
DWIDTH 16 0
BBX 14 25 1 0
BITMAP
03C0
07C0
0EE0
1C70
0000
0000
783C
783C
783C
783C
783C
783C
783C
783C
FFFC
FFFC
FFFC
783C
783C
783C
783C
783C
783C
783C
783C
ENDCHAR
STARTCHAR 0125
ENCODING 293
SWIDTH 576 0
DWIDTH 16 0
BBX 14 25 1 0
BITMAP
03C0
07C0
0EE0
1C70
0000
0000
783C
783C
783C
783C
783C
783C
783C
783C
FFFC
FFFC
FFFC
783C
783C
783C
783C
783C
783C
783C
783C
ENDCHAR
STARTCHAR 0128
ENCODING 296
SWIDTH 216 0
DWIDTH 6 0
BBX 6 17 0 0
BITMAP
FC
FC
08
00
00
38
38
38
38
38
38
38
38
38
38
38
38
ENDCHAR
STARTCHAR 0129
ENCODING 297
SWIDTH 216 0
DWIDTH 6 0
BBX 6 17 0 0
BITMAP
FC
FC
08
00
00
38
38
38
38
38
38
38
38
38
38
38
38
ENDCHAR
STARTCHAR 012A
ENCODING 298
SWIDTH 216 0
DWIDTH 6 0
BBX 8 17 -1 0
BITMAP
FF
FF
FF
00
00
1C
1C
1C
1C
1C
1C
1C
1C
1C
1C
1C
1C
ENDCHAR
STARTCHAR 012B
ENCODING 299
SWIDTH 216 0
DWIDTH 6 0
BBX 8 17 -1 0
BITMAP
FF
FF
FF
00
00
1C
1C
1C
1C
1C
1C
1C
1C
1C
1C
1C
1C
ENDCHAR
STARTCHAR 012E
ENCODING 302
SWIDTH 216 0
DWIDTH 6 0
BBX 7 27 0 -5
BITMAP
20
30
78
FE
78
78
48
00
00
00
78
78
78
78
78
78
78
78
78
78
78
78
60
C0
C0
CC
7C
ENDCHAR
STARTCHAR 012F
ENCODING 303
SWIDTH 216 0
DWIDTH 6 0
BBX 7 27 0 -5
BITMAP
20
30
78
FE
78
78
48
00
00
00
78
78
78
78
78
78
78
78
78
78
78
78
60
C0
C0
CC
7C
ENDCHAR
STARTCHAR 0130
ENCODING 304
SWIDTH 216 0
DWIDTH 6 0
BBX 5 18 1 0
BITMAP
70
F8
F8
70
00
00
70
70
70
70
70
70
70
70
70
70
70
70
ENDCHAR
STARTCHAR 0139
ENCODING 313
SWIDTH 432 0
DWIDTH 12 0
BBX 10 25 2 0
BITMAP
3000
7000
6000
C000
0000
0000
E000
E000
E000
E000
E000
E000
E000
E000
E000
E000
E000
E000
E000
E000
E000
E000
FFC0
FFC0
FFC0
ENDCHAR
STARTCHAR 013A
ENCODING 314
SWIDTH 432 0
DWIDTH 12 0
BBX 10 25 2 0
BITMAP
3000
7000
6000
C000
0000
0000
E000
E000
E000
E000
E000
E000
E000
E000
E000
E000
E000
E000
E000
E000
E000
E000
FFC0
FFC0
FFC0
ENDCHAR
STARTCHAR 013D
ENCODING 317
SWIDTH 432 0
DWIDTH 12 0
BBX 13 25 -1 0
BITMAP
E300
7700
3E00
3C00
0000
0000
1C00
1C00
1C00
1C00
1C00
1C00
1C00
1C00
1C00
1C00
1C00
1C00
1C00
1C00
1C00
1C00
1FF8
1FF8
1FF8
ENDCHAR
STARTCHAR 013E
ENCODING 318
SWIDTH 432 0
DWIDTH 12 0
BBX 13 25 -1 0
BITMAP
E300
7700
3E00
3C00
0000
0000
1C00
1C00
1C00
1C00
1C00
1C00
1C00
1C00
1C00
1C00
1C00
1C00
1C00
1C00
1C00
1C00
1FF8
1FF8
1FF8
ENDCHAR
STARTCHAR 0141
ENCODING 321
SWIDTH 504 0
DWIDTH 14 0
BBX 14 19 0 0
BITMAP
1E00
1E00
1E00
1E00
1E00
1E00
1EC0
1FC0
1F00
3E00
FE00
5E00
1E00
1E00
1E00
1E00
1FFC
1FFC
1FFC
ENDCHAR
STARTCHAR 0142
ENCODING 322
SWIDTH 504 0
DWIDTH 14 0
BBX 14 19 0 0
BITMAP
1E00
1E00
1E00
1E00
1E00
1E00
1EC0
1FC0
1F00
3E00
FE00
5E00
1E00
1E00
1E00
1E00
1FFC
1FFC
1FFC
ENDCHAR
STARTCHAR 0143
ENCODING 323
SWIDTH 540 0
DWIDTH 15 0
BBX 13 25 1 0
BITMAP
01C0
0180
0300
0300
0000
4000
E078
F878
FC78
7E78
7FF8
7FF8
73F8
71F8
70F8
7078
7078
7078
7078
7078
7078
7078
7078
7078
7078
ENDCHAR
STARTCHAR 0144
ENCODING 324
SWIDTH 540 0
DWIDTH 15 0
BBX 13 25 1 0
BITMAP
01C0
0180
0300
0300
0000
4000
E078
F878
FC78
7E78
7FF8
7FF8
73F8
71F8
70F8
7078
7078
7078
7078
7078
7078
7078
7078
7078
7078
ENDCHAR
STARTCHAR 0147
ENCODING 327
SWIDTH 540 0
DWIDTH 15 0
BBX 13 25 1 0
BITMAP
1CE0
1DC0
0F80
0780
0000
4000
E078
F878
FC78
7E78
7FF8
7FF8
73F8
71F8
70F8
7078
7078
7078
7078
7078
7078
7078
7078
7078
7078
ENDCHAR
STARTCHAR 0148
ENCODING 328
SWIDTH 540 0
DWIDTH 15 0
BBX 13 25 1 0
BITMAP
1CE0
1DC0
0F80
0780
0000
4000
E078
F878
FC78
7E78
7FF8
7FF8
73F8
71F8
70F8
7078
7078
7078
7078
7078
7078
7078
7078
7078
7078
ENDCHAR
STARTCHAR 014C
ENCODING 332
SWIDTH 792 0
DWIDTH 22 0
BBX 21 24 1 0
BITMAP
03FC00
03FC00
000000
000000
00F800
07FF00
0FFF80
3F8FC0
3E03E0
7800F0
7800F0
F00070
F00078
E00078
E00078
F00078
F00078
F00070
7800F0
7C01E0
3E07E0
1FFFC0
0FFF80
03FE00
ENDCHAR
STARTCHAR 014D
ENCODING 333
SWIDTH 792 0
DWIDTH 22 0
BBX 21 24 1 0
BITMAP
03FC00
03FC00
000000
000000
00F800
07FF00
0FFF80
3F8FC0
3E03E0
7800F0
7800F0
F00070
F00078
E00078
E00078
F00078
F00078
F00070
7800F0
7C01E0
3E07E0
1FFFC0
0FFF80
03FE00
ENDCHAR
STARTCHAR 0150
ENCODING 336
SWIDTH 792 0
DWIDTH 22 0
BBX 21 25 1 0
BITMAP
00E700
00C600
01CC00
018C00
000000
00F800
07FF00
0FFF80
3F8FC0
3E03E0
7800F0
7800F0
F00070
F00078
E00078
E00078
F00078
F00078
F00070
7800F0
7C01E0
3E07E0
1FFFC0
0FFF80
03FE00
ENDCHAR
STARTCHAR 0151
ENCODING 337
SWIDTH 792 0
DWIDTH 22 0
BBX 21 25 1 0
BITMAP
00E700
00C600
01CC00
018C00
000000
00F800
07FF00
0FFF80
3F8FC0
3E03E0
7800F0
7800F0
F00070
F00078
E00078
E00078
F00078
F00078
F00070
7800F0
7C01E0
3E07E0
1FFFC0
0FFF80
03FE00
ENDCHAR
STARTCHAR 0154
ENCODING 340
SWIDTH 576 0
DWIDTH 16 0
BBX 15 25 1 0
BITMAP
00C0
01C0
0180
0300
0000
0000
7FF0
7FF8
7FFC
781E
781E
780E
781E
781E
FFFC
FFF8
FFF0
FFF8
783C
783C
781C
781C
781C
781C
781C
ENDCHAR
STARTCHAR 0155
ENCODING 341
SWIDTH 576 0
DWIDTH 16 0
BBX 15 25 1 0
BITMAP
00C0
01C0
0180
0300
0000
0000
7FF0
7FF8
7FFC
781E
781E
780E
781E
781E
FFFC
FFF8
FFF0
FFF8
783C
783C
781C
781C
781C
781C
781C
ENDCHAR
STARTCHAR 0158
ENCODING 344
SWIDTH 576 0
DWIDTH 16 0
BBX 15 25 1 0
BITMAP
1C60
0EE0
07C0
0380
0000
0000
7FF0
7FF8
7FFC
781E
781E
780E
781E
781E
FFFC
FFF8
FFF0
FFF8
783C
783C
781C
781C
781C
781C
781C
ENDCHAR
STARTCHAR 0159
ENCODING 345
SWIDTH 576 0
DWIDTH 16 0
BBX 15 25 1 0
BITMAP
1C60
0EE0
07C0
0380
0000
0000
7FF0
7FF8
7FFC
781E
781E
780E
781E
781E
FFFC
FFF8
FFF0
FFF8
783C
783C
781C
781C
781C
781C
781C
ENDCHAR
STARTCHAR 015A
ENCODING 346
SWIDTH 504 0
DWIDTH 14 0
BBX 12 25 1 0
BITMAP
0380
0300
0700
0600
0000
0F00
3FC0
7FE0
79F0
70F0
7040
7800
7C00
3E00
1F80
0FC0
03E0
01F0
00F0
2070
F070
F0F0
7FF0
3FE0
1FC0
ENDCHAR
STARTCHAR 015B
ENCODING 347
SWIDTH 504 0
DWIDTH 14 0
BBX 12 25 1 0
BITMAP
0380
0300
0700
0600
0000
0F00
3FC0
7FE0
79F0
70F0
7040
7800
7C00
3E00
1F80
0FC0
03E0
01F0
00F0
2070
F070
F0F0
7FF0
3FE0
1FC0
ENDCHAR
STARTCHAR 015E
ENCODING 350
SWIDTH 504 0
DWIDTH 14 0
BBX 12 26 1 -6
BITMAP
0F00
3FC0
7FE0
79F0
70F0
7040
7800
7C00
3E00
1F80
0FC0
03E0
01F0
00F0
2070
F070
F0F0
7FF0
3FE0
1FC0
0600
0700
0100
1180
3F00
0F00
ENDCHAR
STARTCHAR 015F
ENCODING 351
SWIDTH 504 0
DWIDTH 14 0
BBX 12 26 1 -6
BITMAP
0F00
3FC0
7FE0
79F0
70F0
7040
7800
7C00
3E00
1F80
0FC0
03E0
01F0
00F0
2070
F070
F0F0
7FF0
3FE0
1FC0
0600
0700
0100
1180
3F00
0F00
ENDCHAR
STARTCHAR 0160
ENCODING 352
SWIDTH 504 0
DWIDTH 14 0
BBX 12 25 1 0
BITMAP
39C0
1F80
1F80
0F00
0000
0F00
3FC0
7FE0
79F0
70F0
7040
7800
7C00
3E00
1F80
0FC0
03E0
01F0
00F0
2070
F070
F0F0
7FF0
3FE0
1FC0
ENDCHAR
STARTCHAR 0161
ENCODING 353
SWIDTH 504 0
DWIDTH 14 0
BBX 12 25 1 0
BITMAP
39C0
1F80
1F80
0F00
0000
0F00
3FC0
7FE0
79F0
70F0
7040
7800
7C00
3E00
1F80
0FC0
03E0
01F0
00F0
2070
F070
F0F0
7FF0
3FE0
1FC0
ENDCHAR
STARTCHAR 0162
ENCODING 354
SWIDTH 504 0
DWIDTH 14 0
BBX 13 25 1 -6
BITMAP
FFF8
FFF8
FFF8
0F00
0F00
0F00
0F00
0F00
0F00
0F00
0F00
0F00
0F00
0F00
0F00
0F00
0F00
0F00
0F00
0600
0700
0300
1100
3F00
1E00
ENDCHAR
STARTCHAR 0163
ENCODING 355
SWIDTH 504 0
DWIDTH 14 0
BBX 13 25 1 -6
BITMAP
FFF8
FFF8
FFF8
0F00
0F00
0F00
0F00
0F00
0F00
0F00
0F00
0F00
0F00
0F00
0F00
0F00
0F00
0F00
0F00
0600
0700
0300
1100
3F00
1E00
ENDCHAR
STARTCHAR 0164
ENCODING 356
SWIDTH 504 0
DWIDTH 14 0
BBX 13 25 1 0
BITMAP
39C0
1DC0
0F80
0F00
0000
0000
FFF8
FFF8
FFF8
0F00
0F00
0F00
0F00
0F00
0F00
0F00
0F00
0F00
0F00
0F00
0F00
0F00
0F00
0F00
0F00
ENDCHAR
STARTCHAR 0165
ENCODING 357
SWIDTH 504 0
DWIDTH 14 0
BBX 13 25 1 0
BITMAP
39C0
1DC0
0F80
0F00
0000
0000
FFF8
FFF8
FFF8
0F00
0F00
0F00
0F00
0F00
0F00
0F00
0F00
0F00
0F00
0F00
0F00
0F00
0F00
0F00
0F00
ENDCHAR
STARTCHAR 0168
ENCODING 360
SWIDTH 504 0
DWIDTH 14 0
BBX 12 25 1 0
BITMAP
1C00
1F80
1780
0000
0000
0000
F070
F070
F070
F070
F070
F070
F070
F070
F070
F070
F070
F070
F070
F070
F070
78F0
7FF0
3FE0
1FC0
ENDCHAR
STARTCHAR 0169
ENCODING 361
SWIDTH 504 0
DWIDTH 14 0
BBX 12 25 1 0
BITMAP
1C00
1F80
1780
0000
0000
0000
F070
F070
F070
F070
F070
F070
F070
F070
F070
F070
F070
F070
F070
F070
F070
78F0
7FF0
3FE0
1FC0
ENDCHAR
STARTCHAR 016A
ENCODING 362
SWIDTH 504 0
DWIDTH 14 0
BBX 12 24 1 0
BITMAP
3FC0
3FC0
0000
0000
0000
F070
F070
F070
F070
F070
F070
F070
F070
F070
F070
F070
F070
F070
F070
F070
78F0
7FF0
3FE0
1FC0
ENDCHAR
STARTCHAR 016B
ENCODING 363
SWIDTH 504 0
DWIDTH 14 0
BBX 12 24 1 0
BITMAP
3FC0
3FC0
0000
0000
0000
F070
F070
F070
F070
F070
F070
F070
F070
F070
F070
F070
F070
F070
F070
F070
78F0
7FF0
3FE0
1FC0
ENDCHAR
STARTCHAR 016E
ENCODING 366
SWIDTH 504 0
DWIDTH 14 0
BBX 12 27 1 0
BITMAP
0600
0F80
0980
1880
0F80
0700
0000
0000
F070
F070
F070
F070
F070
F070
F070
F070
F070
F070
F070
F070
F070
F070
F070
78F0
7FF0
3FE0
1FC0
ENDCHAR
STARTCHAR 016F
ENCODING 367
SWIDTH 504 0
DWIDTH 14 0
BBX 12 27 1 0
BITMAP
0600
0F80
0980
1880
0F80
0700
0000
0000
F070
F070
F070
F070
F070
F070
F070
F070
F070
F070
F070
F070
F070
F070
F070
78F0
7FF0
3FE0
1FC0
ENDCHAR
STARTCHAR 0170
ENCODING 368
SWIDTH 504 0
DWIDTH 14 0
BBX 12 25 1 0
BITMAP
0E70
0C60
1CC0
18C0
0000
0000
F070
F070
F070
F070
F070
F070
F070
F070
F070
F070
F070
F070
F070
F070
F070
78F0
7FF0
3FE0
1FC0
ENDCHAR
STARTCHAR 0171
ENCODING 369
SWIDTH 504 0
DWIDTH 14 0
BBX 12 25 1 0
BITMAP
0E70
0C60
1CC0
18C0
0000
0000
F070
F070
F070
F070
F070
F070
F070
F070
F070
F070
F070
F070
F070
F070
F070
78F0
7FF0
3FE0
1FC0
ENDCHAR
STARTCHAR 0172
ENCODING 370
SWIDTH 504 0
DWIDTH 14 0
BBX 12 24 1 -5
BITMAP
F070
F070
F070
F070
F070
F070
F070
F070
F070
F070
F070
F070
F070
F070
F070
78F0
7FF0
3FE0
1FC0
0600
0C00
0C00
0D80
0F80
ENDCHAR
STARTCHAR 0173
ENCODING 371
SWIDTH 504 0
DWIDTH 14 0
BBX 12 24 1 -5
BITMAP
F070
F070
F070
F070
F070
F070
F070
F070
F070
F070
F070
F070
F070
F070
F070
78F0
7FF0
3FE0
1FC0
0600
0C00
0C00
0D80
0F80
ENDCHAR
STARTCHAR 0176
ENCODING 374
SWIDTH 504 0
DWIDTH 14 0
BBX 12 25 1 0
BITMAP
0F00
1F80
1DC0
38C0
0000
0000
F070
F070
F070
F070
F070
F070
F070
F070
F070
F070
F0F0
7FE0
3FE0
1FC0
0F00
0F00
0F00
0F00
0F00
ENDCHAR
STARTCHAR 0177
ENCODING 375
SWIDTH 504 0
DWIDTH 14 0
BBX 12 25 1 0
BITMAP
0F00
1F80
1DC0
38C0
0000
0000
F070
F070
F070
F070
F070
F070
F070
F070
F070
F070
F0F0
7FE0
3FE0
1FC0
0F00
0F00
0F00
0F00
0F00
ENDCHAR
STARTCHAR 0178
ENCODING 376
SWIDTH 504 0
DWIDTH 14 0
BBX 12 25 1 0
BITMAP
78E0
79F0
79F0
78E0
0000
0000
F070
F070
F070
F070
F070
F070
F070
F070
F070
F070
F0F0
7FE0
3FE0
1FC0
0F00
0F00
0F00
0F00
0F00
ENDCHAR
STARTCHAR 0179
ENCODING 377
SWIDTH 504 0
DWIDTH 14 0
BBX 13 25 1 0
BITMAP
0180
0380
0300
0600
0000
0000
FFF8
FFF8
FFF0
00F0
01E0
01C0
03C0
0780
0780
0F00
0E00
1E00
3C00
3C00
7800
7000
FFF0
FFF0
FFF0
ENDCHAR
STARTCHAR 017A
ENCODING 378
SWIDTH 504 0
DWIDTH 14 0
BBX 13 25 1 0
BITMAP
0180
0380
0300
0600
0000
0000
FFF8
FFF8
FFF0
00F0
01E0
01C0
03C0
0780
0780
0F00
0E00
1E00
3C00
3C00
7800
7000
FFF0
FFF0
FFF0
ENDCHAR
STARTCHAR 017B
ENCODING 379
SWIDTH 504 0
DWIDTH 14 0
BBX 13 26 1 0
BITMAP
0200
0780
0F80
0780
0300
0000
0000
FFF8
FFF8
FFF0
00F0
01E0
01C0
03C0
0780
0780
0F00
0E00
1E00
3C00
3C00
7800
7000
FFF0
FFF0
FFF0
ENDCHAR
STARTCHAR 017C
ENCODING 380
SWIDTH 504 0
DWIDTH 14 0
BBX 13 26 1 0
BITMAP
0200
0780
0F80
0780
0300
0000
0000
FFF8
FFF8
FFF0
00F0
01E0
01C0
03C0
0780
0780
0F00
0E00
1E00
3C00
3C00
7800
7000
FFF0
FFF0
FFF0
ENDCHAR
STARTCHAR 017D
ENCODING 381
SWIDTH 504 0
DWIDTH 14 0
BBX 13 25 1 0
BITMAP
38C0
1DC0
0F80
0700
0000
0000
FFF8
FFF8
FFF0
00F0
01E0
01C0
03C0
0780
0780
0F00
0E00
1E00
3C00
3C00
7800
7000
FFF0
FFF0
FFF0
ENDCHAR
STARTCHAR 017E
ENCODING 382
SWIDTH 504 0
DWIDTH 14 0
BBX 13 25 1 0
BITMAP
38C0
1DC0
0F80
0700
0000
0000
FFF8
FFF8
FFF0
00F0
01E0
01C0
03C0
0780
0780
0F00
0E00
1E00
3C00
3C00
7800
7000
FFF0
FFF0
FFF0
ENDCHAR
STARTCHAR 01A0
ENCODING 416
SWIDTH 792 0
DWIDTH 22 0
BBX 21 22 1 0
BITMAP
000060
000060
00F8E0
07FFC0
0FFF80
3F8FC0
3E03E0
7800F0
7800F0
F00070
F00078
E00078
E00078
F00078
F00078
F00070
7800F0
7C01E0
3E07E0
1FFFC0
0FFF80
03FE00
ENDCHAR
STARTCHAR 01A1
ENCODING 417
SWIDTH 792 0
DWIDTH 22 0
BBX 21 22 1 0
BITMAP
000060
000060
00F8E0
07FFC0
0FFF80
3F8FC0
3E03E0
7800F0
7800F0
F00070
F00078
E00078
E00078
F00078
F00078
F00070
7800F0
7C01E0
3E07E0
1FFFC0
0FFF80
03FE00
ENDCHAR
STARTCHAR 01AF
ENCODING 431
SWIDTH 504 0
DWIDTH 14 0
BBX 15 22 1 0
BITMAP
0006
0006
000C
F078
F070
F070
F070
F070
F070
F070
F070
F070
F070
F070
F070
F070
F070
F070
78F0
7FF0
3FE0
1FC0
ENDCHAR
STARTCHAR 01B0
ENCODING 432
SWIDTH 504 0
DWIDTH 14 0
BBX 15 22 1 0
BITMAP
0006
0006
000C
F078
F070
F070
F070
F070
F070
F070
F070
F070
F070
F070
F070
F070
F070
F070
78F0
7FF0
3FE0
1FC0
ENDCHAR
STARTCHAR 01CD
ENCODING 461
SWIDTH 540 0
DWIDTH 15 0
BBX 14 25 1 0
BITMAP
38C0
1DC0
0F80
0700
0000
0F00
1FC0
3FE0
7DF0
7070
F070
F078
F078
F078
F078
F078
F078
F078
F078
F078
F078
F078
FFFC
FFFC
FFFC
ENDCHAR
STARTCHAR 01CE
ENCODING 462
SWIDTH 540 0
DWIDTH 15 0
BBX 14 25 1 0
BITMAP
38C0
1DC0
0F80
0700
0000
0F00
1FC0
3FE0
7DF0
7070
F070
F078
F078
F078
F078
F078
F078
F078
F078
F078
F078
F078
FFFC
FFFC
FFFC
ENDCHAR
STARTCHAR 01CF
ENCODING 463
SWIDTH 216 0
DWIDTH 6 0
BBX 9 18 -1 0
BITMAP
E380
6700
7E00
3C00
0000
0000
1C00
1C00
1C00
1C00
1C00
1C00
1C00
1C00
1C00
1C00
1C00
1C00
ENDCHAR
STARTCHAR 01D0
ENCODING 464
SWIDTH 216 0
DWIDTH 6 0
BBX 9 18 -1 0
BITMAP
E380
6700
7E00
3C00
0000
0000
1C00
1C00
1C00
1C00
1C00
1C00
1C00
1C00
1C00
1C00
1C00
1C00
ENDCHAR
STARTCHAR 01D1
ENCODING 465
SWIDTH 792 0
DWIDTH 22 0
BBX 21 25 1 0
BITMAP
038C00
01DC00
00F800
007000
000000
00F800
07FF00
0FFF80
3F8FC0
3E03E0
7800F0
7800F0
F00070
F00078
E00078
E00078
F00078
F00078
F00070
7800F0
7C01E0
3E07E0
1FFFC0
0FFF80
03FE00
ENDCHAR
STARTCHAR 01D2
ENCODING 466
SWIDTH 792 0
DWIDTH 22 0
BBX 21 25 1 0
BITMAP
038C00
01DC00
00F800
007000
000000
00F800
07FF00
0FFF80
3F8FC0
3E03E0
7800F0
7800F0
F00070
F00078
E00078
E00078
F00078
F00078
F00070
7800F0
7C01E0
3E07E0
1FFFC0
0FFF80
03FE00
ENDCHAR
STARTCHAR 01D3
ENCODING 467
SWIDTH 504 0
DWIDTH 14 0
BBX 12 25 1 0
BITMAP
38C0
1DC0
0F80
0700
0000
0000
F070
F070
F070
F070
F070
F070
F070
F070
F070
F070
F070
F070
F070
F070
F070
78F0
7FF0
3FE0
1FC0
ENDCHAR
STARTCHAR 01D4
ENCODING 468
SWIDTH 504 0
DWIDTH 14 0
BBX 12 25 1 0
BITMAP
38C0
1DC0
0F80
0700
0000
0000
F070
F070
F070
F070
F070
F070
F070
F070
F070
F070
F070
F070
F070
F070
F070
78F0
7FF0
3FE0
1FC0
ENDCHAR
STARTCHAR 02C6
ENCODING 710
SWIDTH 288 0
DWIDTH 8 0
BBX 9 4 0 21
BITMAP
3E00
3E00
7700
E380
ENDCHAR
STARTCHAR 02C7
ENCODING 711
SWIDTH 288 0
DWIDTH 8 0
BBX 8 4 0 21
BITMAP
E3
77
3E
1C
ENDCHAR
STARTCHAR 02D8
ENCODING 728
SWIDTH 252 0
DWIDTH 7 0
BBX 8 4 0 21
BITMAP
C3
E7
7E
3C
ENDCHAR
STARTCHAR 02D9
ENCODING 729
SWIDTH 144 0
DWIDTH 4 0
BBX 5 5 0 21
BITMAP
70
F0
F8
F0
20
ENDCHAR
STARTCHAR 02DA
ENCODING 730
SWIDTH 180 0
DWIDTH 5 0
BBX 6 6 0 21
BITMAP
30
F8
CC
CC
F8
70
ENDCHAR
STARTCHAR 02DB
ENCODING 731
SWIDTH 216 0
DWIDTH 6 0
BBX 6 5 0 -5
BITMAP
70
C0
C0
CC
7C
ENDCHAR
STARTCHAR 02DC
ENCODING 732
SWIDTH 216 0
DWIDTH 6 0
BBX 7 3 0 22
BITMAP
60
FE
BE
ENDCHAR
STARTCHAR 02DD
ENCODING 733
SWIDTH 324 0
DWIDTH 9 0
BBX 9 4 0 21
BITMAP
3380
7300
6700
C600
ENDCHAR
STARTCHAR 0300
ENCODING 768
SWIDTH 0 0
DWIDTH 0 0
BBX 4 4 -4 21
BITMAP
C0
E0
60
30
ENDCHAR
STARTCHAR 0301
ENCODING 769
SWIDTH 0 0
DWIDTH 0 0
BBX 4 4 -4 21
BITMAP
70
60
C0
C0
ENDCHAR
STARTCHAR 0302
ENCODING 770
SWIDTH 0 0
DWIDTH 0 0
BBX 9 4 -9 21
BITMAP
1E00
3E00
7700
E380
ENDCHAR
STARTCHAR 0303
ENCODING 771
SWIDTH 0 0
DWIDTH 0 0
BBX 7 3 -7 22
BITMAP
70
FE
9E
ENDCHAR
STARTCHAR 0304
ENCODING 772
SWIDTH 0 0
DWIDTH 0 0
BBX 8 2 -8 22
BITMAP
FF
FF
ENDCHAR
STARTCHAR 0306
ENCODING 774
SWIDTH 0 0
DWIDTH 0 0
BBX 8 4 -8 21
BITMAP
C3
E7
7E
3C
ENDCHAR
STARTCHAR 0307
ENCODING 775
SWIDTH 0 0
DWIDTH 0 0
BBX 4 5 -4 21
BITMAP
60
F0
F0
F0
20
ENDCHAR
STARTCHAR 0308
ENCODING 776
SWIDTH 0 0
DWIDTH 0 0
BBX 11 4 -11 21
BITMAP
71E0
F9E0
F9E0
71E0
ENDCHAR
STARTCHAR 0309
ENCODING 777
SWIDTH 0 0
DWIDTH 0 0
BBX 3 5 -3 21
BITMAP
60
60
C0
C0
E0
ENDCHAR
STARTCHAR 030A
ENCODING 778
SWIDTH 0 0
DWIDTH 0 0
BBX 6 6 -6 21
BITMAP
30
78
CC
CC
7C
78
ENDCHAR
STARTCHAR 030B
ENCODING 779
SWIDTH 0 0
DWIDTH 0 0
BBX 9 4 -9 21
BITMAP
3380
6300
6600
C600
ENDCHAR
STARTCHAR 030C
ENCODING 780
SWIDTH 0 0
DWIDTH 0 0
BBX 9 4 -9 21
BITMAP
E380
7700
3E00
1C00
ENDCHAR
STARTCHAR 031B
ENCODING 795
SWIDTH 0 0
DWIDTH 0 0
BBX 4 4 -4 18
BITMAP
30
30
60
C0
ENDCHAR
STARTCHAR 0323
ENCODING 803
SWIDTH 0 0
DWIDTH 0 0
BBX 5 5 -5 -8
BITMAP
30
78
F8
78
20
ENDCHAR
STARTCHAR 0326
ENCODING 806
SWIDTH 0 0
DWIDTH 0 0
BBX 4 4 -4 -6
BITMAP
70
60
E0
C0
ENDCHAR
STARTCHAR 0327
ENCODING 807
SWIDTH 0 0
DWIDTH 0 0
BBX 6 6 -6 -6
BITMAP
10
18
0C
0C
FC
78
ENDCHAR
STARTCHAR 0328
ENCODING 808
SWIDTH 0 0
DWIDTH 0 0
BBX 6 5 -6 -5
BITMAP
70
C0
C0
CC
7C
ENDCHAR
STARTCHAR 0335
ENCODING 821
SWIDTH 0 0
DWIDTH 0 0
BBX 9 3 -9 4
BITMAP
FF80
FF80
FF80
ENDCHAR
STARTCHAR 1EA0
ENCODING 7840
SWIDTH 540 0
DWIDTH 15 0
BBX 14 28 1 -8
BITMAP
0F00
1FC0
3FE0
7DF0
7070
F070
F078
F078
F078
F078
F078
F078
F078
F078
F078
F078
F078
FFFC
FFFC
FFFC
0000
0000
0000
0700
0F80
0F80
0700
0200
ENDCHAR
STARTCHAR 1EA1
ENCODING 7841
SWIDTH 540 0
DWIDTH 15 0
BBX 14 28 1 -8
BITMAP
0F00
1FC0
3FE0
7DF0
7070
F070
F078
F078
F078
F078
F078
F078
F078
F078
F078
F078
F078
FFFC
FFFC
FFFC
0000
0000
0000
0700
0F80
0F80
0700
0200
ENDCHAR
STARTCHAR 1EA2
ENCODING 7842
SWIDTH 540 0
DWIDTH 15 0
BBX 14 26 1 0
BITMAP
0300
0300
0600
0600
0600
0000
0F00
1FC0
3FE0
7DF0
7070
F070
F078
F078
F078
F078
F078
F078
F078
F078
F078
F078
F078
FFFC
FFFC
FFFC
ENDCHAR
STARTCHAR 1EA3
ENCODING 7843
SWIDTH 540 0
DWIDTH 15 0
BBX 14 26 1 0
BITMAP
0300
0300
0600
0600
0600
0000
0F00
1FC0
3FE0
7DF0
7070
F070
F078
F078
F078
F078
F078
F078
F078
F078
F078
F078
F078
FFFC
FFFC
FFFC
ENDCHAR
STARTCHAR 1EA4
ENCODING 7844
SWIDTH 540 0
DWIDTH 15 0
BBX 14 27 1 0
BITMAP
001C
0018
0FB8
0F80
1DC0
38E0
0000
0F00
1FC0
3FE0
7DF0
7070
F070
F078
F078
F078
F078
F078
F078
F078
F078
F078
F078
F078
FFFC
FFFC
FFFC
ENDCHAR
STARTCHAR 1EA5
ENCODING 7845
SWIDTH 540 0
DWIDTH 15 0
BBX 14 27 1 0
BITMAP
001C
0018
0FB8
0F80
1DC0
38E0
0000
0F00
1FC0
3FE0
7DF0
7070
F070
F078
F078
F078
F078
F078
F078
F078
F078
F078
F078
F078
FFFC
FFFC
FFFC
ENDCHAR
STARTCHAR 1EA6
ENCODING 7846
SWIDTH 540 0
DWIDTH 15 0
BBX 16 27 -1 0
BITMAP
E000
6000
33C0
03E0
0770
0E38
0000
03C0
07F0
0FF8
1F7C
1C1C
3C1C
3C1E
3C1E
3C1E
3C1E
3C1E
3C1E
3C1E
3C1E
3C1E
3C1E
3C1E
3FFF
3FFF
3FFF
ENDCHAR
STARTCHAR 1EA7
ENCODING 7847
SWIDTH 540 0
DWIDTH 15 0
BBX 16 27 -1 0
BITMAP
E000
6000
33C0
03E0
0770
0E38
0000
03C0
07F0
0FF8
1F7C
1C1C
3C1C
3C1E
3C1E
3C1E
3C1E
3C1E
3C1E
3C1E
3C1E
3C1E
3C1E
3C1E
3FFF
3FFF
3FFF
ENDCHAR
STARTCHAR 1EA8
ENCODING 7848
SWIDTH 540 0
DWIDTH 15 0
BBX 14 29 1 0
BITMAP
0030
0018
0038
0030
0FB0
0FB0
1DC0
38E0
0000
0F00
1FC0
3FE0
7DF0
7070
F070
F078
F078
F078
F078
F078
F078
F078
F078
F078
F078
F078
FFFC
FFFC
FFFC
ENDCHAR
STARTCHAR 1EA9
ENCODING 7849
SWIDTH 540 0
DWIDTH 15 0
BBX 14 29 1 0
BITMAP
0030
0018
0038
0030
0FB0
0FB0
1DC0
38E0
0000
0F00
1FC0
3FE0
7DF0
7070
F070
F078
F078
F078
F078
F078
F078
F078
F078
F078
F078
F078
FFFC
FFFC
FFFC
ENDCHAR
STARTCHAR 1EAA
ENCODING 7850
SWIDTH 540 0
DWIDTH 15 0
BBX 14 28 1 0
BITMAP
03F8
03F8
0030
0F80
0F80
1DC0
38E0
0000
0F00
1FC0
3FE0
7DF0
7070
F070
F078
F078
F078
F078
F078
F078
F078
F078
F078
F078
F078
FFFC
FFFC
FFFC
ENDCHAR
STARTCHAR 1EAB
ENCODING 7851
SWIDTH 540 0
DWIDTH 15 0
BBX 14 28 1 0
BITMAP
03F8
03F8
0030
0F80
0F80
1DC0
38E0
0000
0F00
1FC0
3FE0
7DF0
7070
F070
F078
F078
F078
F078
F078
F078
F078
F078
F078
F078
F078
FFFC
FFFC
FFFC
ENDCHAR
STARTCHAR 1EAC
ENCODING 7852
SWIDTH 540 0
DWIDTH 15 0
BBX 14 33 1 -8
BITMAP
0F80
0F80
1DC0
38E0
0000
0F00
1FC0
3FE0
7DF0
7070
F070
F078
F078
F078
F078
F078
F078
F078
F078
F078
F078
F078
FFFC
FFFC
FFFC
0000
0000
0000
0700
0F80
0F80
0700
0200
ENDCHAR
STARTCHAR 1EAD
ENCODING 7853
SWIDTH 540 0
DWIDTH 15 0
BBX 14 33 1 -8
BITMAP
0F80
0F80
1DC0
38E0
0000
0F00
1FC0
3FE0
7DF0
7070
F070
F078
F078
F078
F078
F078
F078
F078
F078
F078
F078
F078
FFFC
FFFC
FFFC
0000
0000
0000
0700
0F80
0F80
0700
0200
ENDCHAR
STARTCHAR 1EAE
ENCODING 7854
SWIDTH 540 0
DWIDTH 15 0
BBX 14 29 1 0
BITMAP
01C0
0180
0380
0300
18C0
18C0
1FC0
0700
0000
0F00
1FC0
3FE0
7DF0
7070
F070
F078
F078
F078
F078
F078
F078
F078
F078
F078
F078
F078
FFFC
FFFC
FFFC
ENDCHAR
STARTCHAR 1EAF
ENCODING 7855
SWIDTH 540 0
DWIDTH 15 0
BBX 14 29 1 0
BITMAP
01C0
0180
0380
0300
18C0
18C0
1FC0
0700
0000
0F00
1FC0
3FE0
7DF0
7070
F070
F078
F078
F078
F078
F078
F078
F078
F078
F078
F078
F078
FFFC
FFFC
FFFC
ENDCHAR
STARTCHAR 1EB0
ENCODING 7856
SWIDTH 540 0
DWIDTH 15 0
BBX 14 29 1 0
BITMAP
1800
1C00
0C00
0600
18C0
18C0
1FC0
0700
0000
0F00
1FC0
3FE0
7DF0
7070
F070
F078
F078
F078
F078
F078
F078
F078
F078
F078
F078
F078
FFFC
FFFC
FFFC
ENDCHAR
STARTCHAR 1EB1
ENCODING 7857
SWIDTH 540 0
DWIDTH 15 0
BBX 14 29 1 0
BITMAP
1800
1C00
0C00
0600
18C0
18C0
1FC0
0700
0000
0F00
1FC0
3FE0
7DF0
7070
F070
F078
F078
F078
F078
F078
F078
F078
F078
F078
F078
F078
FFFC
FFFC
FFFC
ENDCHAR
STARTCHAR 1EB2
ENCODING 7858
SWIDTH 540 0
DWIDTH 15 0
BBX 14 30 1 0
BITMAP
0300
0300
0300
0600
0600
1BC0
18C0
1FC0
0700
0000
0F00
1FC0
3FE0
7DF0
7070
F070
F078
F078
F078
F078
F078
F078
F078
F078
F078
F078
F078
FFFC
FFFC
FFFC
ENDCHAR
STARTCHAR 1EB3
ENCODING 7859
SWIDTH 540 0
DWIDTH 15 0
BBX 14 30 1 0
BITMAP
0300
0300
0300
0600
0600
1BC0
18C0
1FC0
0700
0000
0F00
1FC0
3FE0
7DF0
7070
F070
F078
F078
F078
F078
F078
F078
F078
F078
F078
F078
F078
FFFC
FFFC
FFFC
ENDCHAR
STARTCHAR 1EB4
ENCODING 7860
SWIDTH 540 0
DWIDTH 15 0
BBX 14 28 1 0
BITMAP
1FC0
1FC0
0000
18C0
18C0
1FC0
0700
0000
0F00
1FC0
3FE0
7DF0
7070
F070
F078
F078
F078
F078
F078
F078
F078
F078
F078
F078
F078
FFFC
FFFC
FFFC
ENDCHAR
STARTCHAR 1EB5
ENCODING 7861
SWIDTH 540 0
DWIDTH 15 0
BBX 14 28 1 0
BITMAP
1FC0
1FC0
0000
18C0
18C0
1FC0
0700
0000
0F00
1FC0
3FE0
7DF0
7070
F070
F078
F078
F078
F078
F078
F078
F078
F078
F078
F078
F078
FFFC
FFFC
FFFC
ENDCHAR
STARTCHAR 1EB6
ENCODING 7862
SWIDTH 540 0
DWIDTH 15 0
BBX 14 33 1 -8
BITMAP
18C0
18C0
1FC0
0700
0000
0F00
1FC0
3FE0
7DF0
7070
F070
F078
F078
F078
F078
F078
F078
F078
F078
F078
F078
F078
FFFC
FFFC
FFFC
0000
0000
0000
0700
0F80
0F80
0700
0200
ENDCHAR
STARTCHAR 1EB7
ENCODING 7863
SWIDTH 540 0
DWIDTH 15 0
BBX 14 33 1 -8
BITMAP
18C0
18C0
1FC0
0700
0000
0F00
1FC0
3FE0
7DF0
7070
F070
F078
F078
F078
F078
F078
F078
F078
F078
F078
F078
F078
FFFC
FFFC
FFFC
0000
0000
0000
0700
0F80
0F80
0700
0200
ENDCHAR
STARTCHAR 1EB8
ENCODING 7864
SWIDTH 504 0
DWIDTH 14 0
BBX 13 27 1 -8
BITMAP
7FC0
7FC0
7FC0
7800
7800
7800
7800
7800
FFE0
FFE0
FFE0
7800
7800
7800
7800
7800
7FF8
7FF8
7FF8
0000
0000
0000
0380
07C0
07C0
0380
0100
ENDCHAR
STARTCHAR 1EB9
ENCODING 7865
SWIDTH 504 0
DWIDTH 14 0
BBX 13 27 1 -8
BITMAP
7FC0
7FC0
7FC0
7800
7800
7800
7800
7800
FFE0
FFE0
FFE0
7800
7800
7800
7800
7800
7FF8
7FF8
7FF8
0000
0000
0000
0380
07C0
07C0
0380
0100
ENDCHAR
STARTCHAR 1EBA
ENCODING 7866
SWIDTH 504 0
DWIDTH 14 0
BBX 13 26 1 0
BITMAP
0600
0600
0C00
0C00
0C00
0000
0000
7FC0
7FC0
7FC0
7800
7800
7800
7800
7800
FFE0
FFE0
FFE0
7800
7800
7800
7800
7800
7FF8
7FF8
7FF8
ENDCHAR
STARTCHAR 1EBB
ENCODING 7867
SWIDTH 504 0
DWIDTH 14 0
BBX 13 26 1 0
BITMAP
0600
0600
0C00
0C00
0C00
0000
0000
7FC0
7FC0
7FC0
7800
7800
7800
7800
7800
FFE0
FFE0
FFE0
7800
7800
7800
7800
7800
7FF8
7FF8
7FF8
ENDCHAR
STARTCHAR 1EBC
ENCODING 7868
SWIDTH 504 0
DWIDTH 14 0
BBX 13 25 1 0
BITMAP
3800
3F80
2F80
0000
0000
0000
7FC0
7FC0
7FC0
7800
7800
7800
7800
7800
FFE0
FFE0
FFE0
7800
7800
7800
7800
7800
7FF8
7FF8
7FF8
ENDCHAR
STARTCHAR 1EBD
ENCODING 7869
SWIDTH 504 0
DWIDTH 14 0
BBX 13 25 1 0
BITMAP
3800
3F80
2F80
0000
0000
0000
7FC0
7FC0
7FC0
7800
7800
7800
7800
7800
FFE0
FFE0
FFE0
7800
7800
7800
7800
7800
7FF8
7FF8
7FF8
ENDCHAR
STARTCHAR 1EBE
ENCODING 7870
SWIDTH 504 0
DWIDTH 14 0
BBX 13 27 1 0
BITMAP
0018
0030
0F30
1F00
3B80
71C0
0000
0000
7FC0
7FC0
7FC0
7800
7800
7800
7800
7800
FFE0
FFE0
FFE0
7800
7800
7800
7800
7800
7FF8
7FF8
7FF8
ENDCHAR
STARTCHAR 1EBF
ENCODING 7871
SWIDTH 504 0
DWIDTH 14 0
BBX 13 27 1 0
BITMAP
0018
0030
0F30
1F00
3B80
71C0
0000
0000
7FC0
7FC0
7FC0
7800
7800
7800
7800
7800
FFE0
FFE0
FFE0
7800
7800
7800
7800
7800
7FF8
7FF8
7FF8
ENDCHAR
STARTCHAR 1EC0
ENCODING 7872
SWIDTH 504 0
DWIDTH 14 0
BBX 16 27 -2 0
BITMAP
E000
6000
31E0
03E0
0770
0E38
0000
0000
0FF8
0FF8
0FF8
0F00
0F00
0F00
0F00
0F00
1FFC
1FFC
1FFC
0F00
0F00
0F00
0F00
0F00
0FFF
0FFF
0FFF
ENDCHAR
STARTCHAR 1EC1
ENCODING 7873
SWIDTH 504 0
DWIDTH 14 0
BBX 16 27 -2 0
BITMAP
E000
6000
31E0
03E0
0770
0E38
0000
0000
0FF8
0FF8
0FF8
0F00
0F00
0F00
0F00
0F00
1FFC
1FFC
1FFC
0F00
0F00
0F00
0F00
0F00
0FFF
0FFF
0FFF
ENDCHAR
STARTCHAR 1EC2
ENCODING 7874
SWIDTH 504 0
DWIDTH 14 0
BBX 13 29 1 0
BITMAP
0070
0030
0070
0060
0F60
1F60
3B80
71C0
0000
0000
7FC0
7FC0
7FC0
7800
7800
7800
7800
7800
FFE0
FFE0
FFE0
7800
7800
7800
7800
7800
7FF8
7FF8
7FF8
ENDCHAR
STARTCHAR 1EC3
ENCODING 7875
SWIDTH 504 0
DWIDTH 14 0
BBX 13 29 1 0
BITMAP
0070
0030
0070
0060
0F60
1F60
3B80
71C0
0000
0000
7FC0
7FC0
7FC0
7800
7800
7800
7800
7800
FFE0
FFE0
FFE0
7800
7800
7800
7800
7800
7FF8
7FF8
7FF8
ENDCHAR
STARTCHAR 1EC4
ENCODING 7876
SWIDTH 504 0
DWIDTH 14 0
BBX 13 28 1 0
BITMAP
07F0
07F0
0060
0F00
1F00
3B80
71C0
0000
0000
7FC0
7FC0
7FC0
7800
7800
7800
7800
7800
FFE0
FFE0
FFE0
7800
7800
7800
7800
7800
7FF8
7FF8
7FF8
ENDCHAR
STARTCHAR 1EC5
ENCODING 7877
SWIDTH 504 0
DWIDTH 14 0
BBX 13 28 1 0
BITMAP
07F0
07F0
0060
0F00
1F00
3B80
71C0
0000
0000
7FC0
7FC0
7FC0
7800
7800
7800
7800
7800
FFE0
FFE0
FFE0
7800
7800
7800
7800
7800
7FF8
7FF8
7FF8
ENDCHAR
STARTCHAR 1EC6
ENCODING 7878
SWIDTH 504 0
DWIDTH 14 0
BBX 13 33 1 -8
BITMAP
0F00
1F00
3B80
71C0
0000
0000
7FC0
7FC0
7FC0
7800
7800
7800
7800
7800
FFE0
FFE0
FFE0
7800
7800
7800
7800
7800
7FF8
7FF8
7FF8
0000
0000
0000
0380
07C0
07C0
0380
0100
ENDCHAR
STARTCHAR 1EC7
ENCODING 7879
SWIDTH 504 0
DWIDTH 14 0
BBX 13 33 1 -8
BITMAP
0F00
1F00
3B80
71C0
0000
0000
7FC0
7FC0
7FC0
7800
7800
7800
7800
7800
FFE0
FFE0
FFE0
7800
7800
7800
7800
7800
7FF8
7FF8
7FF8
0000
0000
0000
0380
07C0
07C0
0380
0100
ENDCHAR
STARTCHAR 1EC8
ENCODING 7880
SWIDTH 216 0
DWIDTH 6 0
BBX 3 19 2 0
BITMAP
C0
E0
C0
C0
C0
00
00
E0
E0
E0
E0
E0
E0
E0
E0
E0
E0
E0
E0
ENDCHAR
STARTCHAR 1EC9
ENCODING 7881
SWIDTH 216 0
DWIDTH 6 0
BBX 3 19 2 0
BITMAP
C0
E0
C0
C0
C0
00
00
E0
E0
E0
E0
E0
E0
E0
E0
E0
E0
E0
E0
ENDCHAR
STARTCHAR 1ECA
ENCODING 7882
SWIDTH 216 0
DWIDTH 6 0
BBX 7 30 0 -8
BITMAP
20
30
78
FE
78
78
48
00
00
00
78
78
78
78
78
78
78
78
78
78
78
78
00
00
00
30
78
78
78
10
ENDCHAR
STARTCHAR 1ECB
ENCODING 7883
SWIDTH 216 0
DWIDTH 6 0
BBX 7 30 0 -8
BITMAP
20
30
78
FE
78
78
48
00
00
00
78
78
78
78
78
78
78
78
78
78
78
78
00
00
00
30
78
78
78
10
ENDCHAR
STARTCHAR 1ECC
ENCODING 7884
SWIDTH 792 0
DWIDTH 22 0
BBX 21 28 1 -8
BITMAP
00F800
07FF00
0FFF80
3F8FC0
3E03E0
7800F0
7800F0
F00070
F00078
E00078
E00078
F00078
F00078
F00070
7800F0
7C01E0
3E07E0
1FFFC0
0FFF80
03FE00
000000
000000
000000
007000
00F800
00F800
007000
002000
ENDCHAR
STARTCHAR 1ECD
ENCODING 7885
SWIDTH 792 0
DWIDTH 22 0
BBX 21 28 1 -8
BITMAP
00F800
07FF00
0FFF80
3F8FC0
3E03E0
7800F0
7800F0
F00070
F00078
E00078
E00078
F00078
F00078
F00070
7800F0
7C01E0
3E07E0
1FFFC0
0FFF80
03FE00
000000
000000
000000
007000
00F800
00F800
007000
002000
ENDCHAR
STARTCHAR 1ECE
ENCODING 7886
SWIDTH 792 0
DWIDTH 22 0
BBX 21 26 1 0
BITMAP
003000
003000
006000
006000
006000
000000
00F800
07FF00
0FFF80
3F8FC0
3E03E0
7800F0
7800F0
F00070
F00078
E00078
E00078
F00078
F00078
F00070
7800F0
7C01E0
3E07E0
1FFFC0
0FFF80
03FE00
ENDCHAR
STARTCHAR 1ECF
ENCODING 7887
SWIDTH 792 0
DWIDTH 22 0
BBX 21 26 1 0
BITMAP
003000
003000
006000
006000
006000
000000
00F800
07FF00
0FFF80
3F8FC0
3E03E0
7800F0
7800F0
F00070
F00078
E00078
E00078
F00078
F00078
F00070
7800F0
7C01E0
3E07E0
1FFFC0
0FFF80
03FE00
ENDCHAR
STARTCHAR 1ED0
ENCODING 7888
SWIDTH 792 0
DWIDTH 22 0
BBX 21 27 1 0
BITMAP
0001C0
000180
00F300
00F800
01DC00
038E00
000000
00F800
07FF00
0FFF80
3F8FC0
3E03E0
7800F0
7800F0
F00070
F00078
E00078
E00078
F00078
F00078
F00070
7800F0
7C01E0
3E07E0
1FFFC0
0FFF80
03FE00
ENDCHAR
STARTCHAR 1ED1
ENCODING 7889
SWIDTH 792 0
DWIDTH 22 0
BBX 21 27 1 0
BITMAP
0001C0
000180
00F300
00F800
01DC00
038E00
000000
00F800
07FF00
0FFF80
3F8FC0
3E03E0
7800F0
7800F0
F00070
F00078
E00078
E00078
F00078
F00078
F00070
7800F0
7C01E0
3E07E0
1FFFC0
0FFF80
03FE00
ENDCHAR
STARTCHAR 1ED2
ENCODING 7890
SWIDTH 792 0
DWIDTH 22 0
BBX 21 27 1 0
BITMAP
380000
180000
0CF000
00F800
01DC00
038E00
000000
00F800
07FF00
0FFF80
3F8FC0
3E03E0
7800F0
7800F0
F00070
F00078
E00078
E00078
F00078
F00078
F00070
7800F0
7C01E0
3E07E0
1FFFC0
0FFF80
03FE00
ENDCHAR
STARTCHAR 1ED3
ENCODING 7891
SWIDTH 792 0
DWIDTH 22 0
BBX 21 27 1 0
BITMAP
380000
180000
0CF000
00F800
01DC00
038E00
000000
00F800
07FF00
0FFF80
3F8FC0
3E03E0
7800F0
7800F0
F00070
F00078
E00078
E00078
F00078
F00078
F00070
7800F0
7C01E0
3E07E0
1FFFC0
0FFF80
03FE00
ENDCHAR
STARTCHAR 1ED4
ENCODING 7892
SWIDTH 792 0
DWIDTH 22 0
BBX 21 29 1 0
BITMAP
000300
000180
000300
000300
00F300
00FB00
01DC00
038E00
000000
00F800
07FF00
0FFF80
3F8FC0
3E03E0
7800F0
7800F0
F00070
F00078
E00078
E00078
F00078
F00078
F00070
7800F0
7C01E0
3E07E0
1FFFC0
0FFF80
03FE00
ENDCHAR
STARTCHAR 1ED5
ENCODING 7893
SWIDTH 792 0
DWIDTH 22 0
BBX 21 29 1 0
BITMAP
000300
000180
000300
000300
00F300
00FB00
01DC00
038E00
000000
00F800
07FF00
0FFF80
3F8FC0
3E03E0
7800F0
7800F0
F00070
F00078
E00078
E00078
F00078
F00078
F00070
7800F0
7C01E0
3E07E0
1FFFC0
0FFF80
03FE00
ENDCHAR
STARTCHAR 1ED6
ENCODING 7894
SWIDTH 792 0
DWIDTH 22 0
BBX 21 28 1 0
BITMAP
003F80
003F80
000300
00F000
00F800
01DC00
038E00
000000
00F800
07FF00
0FFF80
3F8FC0
3E03E0
7800F0
7800F0
F00070
F00078
E00078
E00078
F00078
F00078
F00070
7800F0
7C01E0
3E07E0
1FFFC0
0FFF80
03FE00
ENDCHAR
STARTCHAR 1ED7
ENCODING 7895
SWIDTH 792 0
DWIDTH 22 0
BBX 21 28 1 0
BITMAP
003F80
003F80
000300
00F000
00F800
01DC00
038E00
000000
00F800
07FF00
0FFF80
3F8FC0
3E03E0
7800F0
7800F0
F00070
F00078
E00078
E00078
F00078
F00078
F00070
7800F0
7C01E0
3E07E0
1FFFC0
0FFF80
03FE00
ENDCHAR
STARTCHAR 1ED8
ENCODING 7896
SWIDTH 792 0
DWIDTH 22 0
BBX 21 33 1 -8
BITMAP
00F000
00F800
01DC00
038E00
000000
00F800
07FF00
0FFF80
3F8FC0
3E03E0
7800F0
7800F0
F00070
F00078
E00078
E00078
F00078
F00078
F00070
7800F0
7C01E0
3E07E0
1FFFC0
0FFF80
03FE00
000000
000000
000000
007000
00F800
00F800
007000
002000
ENDCHAR
STARTCHAR 1ED9
ENCODING 7897
SWIDTH 792 0
DWIDTH 22 0
BBX 21 33 1 -8
BITMAP
00F000
00F800
01DC00
038E00
000000
00F800
07FF00
0FFF80
3F8FC0
3E03E0
7800F0
7800F0
F00070
F00078
E00078
E00078
F00078
F00078
F00070
7800F0
7C01E0
3E07E0
1FFFC0
0FFF80
03FE00
000000
000000
000000
007000
00F800
00F800
007000
002000
ENDCHAR
STARTCHAR 1EDA
ENCODING 7898
SWIDTH 792 0
DWIDTH 22 0
BBX 21 25 1 0
BITMAP
001800
003800
003000
006060
000060
00F8E0
07FFC0
0FFF80
3F8FC0
3E03E0
7800F0
7800F0
F00070
F00078
E00078
E00078
F00078
F00078
F00070
7800F0
7C01E0
3E07E0
1FFFC0
0FFF80
03FE00
ENDCHAR
STARTCHAR 1EDB
ENCODING 7899
SWIDTH 792 0
DWIDTH 22 0
BBX 21 25 1 0
BITMAP
001800
003800
003000
006060
000060
00F8E0
07FFC0
0FFF80
3F8FC0
3E03E0
7800F0
7800F0
F00070
F00078
E00078
E00078
F00078
F00078
F00070
7800F0
7C01E0
3E07E0
1FFFC0
0FFF80
03FE00
ENDCHAR
STARTCHAR 1EDC
ENCODING 7900
SWIDTH 792 0
DWIDTH 22 0
BBX 21 25 1 0
BITMAP
01C000
00E000
006000
003060
000060
00F8E0
07FFC0
0FFF80
3F8FC0
3E03E0
7800F0
7800F0
F00070
F00078
E00078
E00078
F00078
F00078
F00070
7800F0
7C01E0
3E07E0
1FFFC0
0FFF80
03FE00
ENDCHAR
STARTCHAR 1EDD
ENCODING 7901
SWIDTH 792 0
DWIDTH 22 0
BBX 21 25 1 0
BITMAP
01C000
00E000
006000
003060
000060
00F8E0
07FFC0
0FFF80
3F8FC0
3E03E0
7800F0
7800F0
F00070
F00078
E00078
E00078
F00078
F00078
F00070
7800F0
7C01E0
3E07E0
1FFFC0
0FFF80
03FE00
ENDCHAR
STARTCHAR 1EDE
ENCODING 7902
SWIDTH 792 0
DWIDTH 22 0
BBX 21 26 1 0
BITMAP
003000
003000
006000
006000
006060
000060
00F8E0
07FFC0
0FFF80
3F8FC0
3E03E0
7800F0
7800F0
F00070
F00078
E00078
E00078
F00078
F00078
F00070
7800F0
7C01E0
3E07E0
1FFFC0
0FFF80
03FE00
ENDCHAR
STARTCHAR 1EDF
ENCODING 7903
SWIDTH 792 0
DWIDTH 22 0
BBX 21 26 1 0
BITMAP
003000
003000
006000
006000
006060
000060
00F8E0
07FFC0
0FFF80
3F8FC0
3E03E0
7800F0
7800F0
F00070
F00078
E00078
E00078
F00078
F00078
F00070
7800F0
7C01E0
3E07E0
1FFFC0
0FFF80
03FE00
ENDCHAR
STARTCHAR 1EE0
ENCODING 7904
SWIDTH 792 0
DWIDTH 22 0
BBX 21 25 1 0
BITMAP
01C000
01F800
017800
000060
000060
00F8E0
07FFC0
0FFF80
3F8FC0
3E03E0
7800F0
7800F0
F00070
F00078
E00078
E00078
F00078
F00078
F00070
7800F0
7C01E0
3E07E0
1FFFC0
0FFF80
03FE00
ENDCHAR
STARTCHAR 1EE1
ENCODING 7905
SWIDTH 792 0
DWIDTH 22 0
BBX 21 25 1 0
BITMAP
01C000
01F800
017800
000060
000060
00F8E0
07FFC0
0FFF80
3F8FC0
3E03E0
7800F0
7800F0
F00070
F00078
E00078
E00078
F00078
F00078
F00070
7800F0
7C01E0
3E07E0
1FFFC0
0FFF80
03FE00
ENDCHAR
STARTCHAR 1EE2
ENCODING 7906
SWIDTH 792 0
DWIDTH 22 0
BBX 21 30 1 -8
BITMAP
000060
000060
00F8E0
07FFC0
0FFF80
3F8FC0
3E03E0
7800F0
7800F0
F00070
F00078
E00078
E00078
F00078
F00078
F00070
7800F0
7C01E0
3E07E0
1FFFC0
0FFF80
03FE00
000000
000000
000000
007000
00F800
00F800
007000
002000
ENDCHAR
STARTCHAR 1EE3
ENCODING 7907
SWIDTH 792 0
DWIDTH 22 0
BBX 21 30 1 -8
BITMAP
000060
000060
00F8E0
07FFC0
0FFF80
3F8FC0
3E03E0
7800F0
7800F0
F00070
F00078
E00078
E00078
F00078
F00078
F00070
7800F0
7C01E0
3E07E0
1FFFC0
0FFF80
03FE00
000000
000000
000000
007000
00F800
00F800
007000
002000
ENDCHAR
STARTCHAR 1EE4
ENCODING 7908
SWIDTH 504 0
DWIDTH 14 0
BBX 12 27 1 -8
BITMAP
F070
F070
F070
F070
F070
F070
F070
F070
F070
F070
F070
F070
F070
F070
F070
78F0
7FF0
3FE0
1FC0
0000
0000
0000
0700
0F00
0F80
0F00
0200
ENDCHAR
STARTCHAR 1EE5
ENCODING 7909
SWIDTH 504 0
DWIDTH 14 0
BBX 12 27 1 -8
BITMAP
F070
F070
F070
F070
F070
F070
F070
F070
F070
F070
F070
F070
F070
F070
F070
78F0
7FF0
3FE0
1FC0
0000
0000
0000
0700
0F00
0F80
0F00
0200
ENDCHAR
STARTCHAR 1EE6
ENCODING 7910
SWIDTH 504 0
DWIDTH 14 0
BBX 12 26 1 0
BITMAP
0300
0700
0600
0600
0600
0000
0000
F070
F070
F070
F070
F070
F070
F070
F070
F070
F070
F070
F070
F070
F070
F070
78F0
7FF0
3FE0
1FC0
ENDCHAR
STARTCHAR 1EE7
ENCODING 7911
SWIDTH 504 0
DWIDTH 14 0
BBX 12 26 1 0
BITMAP
0300
0700
0600
0600
0600
0000
0000
F070
F070
F070
F070
F070
F070
F070
F070
F070
F070
F070
F070
F070
F070
F070
78F0
7FF0
3FE0
1FC0
ENDCHAR
STARTCHAR 1EE8
ENCODING 7912
SWIDTH 504 0
DWIDTH 14 0
BBX 15 25 1 0
BITMAP
0180
0380
0300
0606
0006
000C
F078
F070
F070
F070
F070
F070
F070
F070
F070
F070
F070
F070
F070
F070
F070
78F0
7FF0
3FE0
1FC0
ENDCHAR
STARTCHAR 1EE9
ENCODING 7913
SWIDTH 504 0
DWIDTH 14 0
BBX 15 25 1 0
BITMAP
0180
0380
0300
0606
0006
000C
F078
F070
F070
F070
F070
F070
F070
F070
F070
F070
F070
F070
F070
F070
F070
78F0
7FF0
3FE0
1FC0
ENDCHAR
STARTCHAR 1EEA
ENCODING 7914
SWIDTH 504 0
DWIDTH 14 0
BBX 15 25 1 0
BITMAP
1C00
0E00
0600
0306
0006
000C
F078
F070
F070
F070
F070
F070
F070
F070
F070
F070
F070
F070
F070
F070
F070
78F0
7FF0
3FE0
1FC0
ENDCHAR
STARTCHAR 1EEB
ENCODING 7915
SWIDTH 504 0
DWIDTH 14 0
BBX 15 25 1 0
BITMAP
1C00
0E00
0600
0306
0006
000C
F078
F070
F070
F070
F070
F070
F070
F070
F070
F070
F070
F070
F070
F070
F070
78F0
7FF0
3FE0
1FC0
ENDCHAR
STARTCHAR 1EEC
ENCODING 7916
SWIDTH 504 0
DWIDTH 14 0
BBX 15 26 1 0
BITMAP
0300
0700
0600
0600
0606
0006
000C
F078
F070
F070
F070
F070
F070
F070
F070
F070
F070
F070
F070
F070
F070
F070
78F0
7FF0
3FE0
1FC0
ENDCHAR
STARTCHAR 1EED
ENCODING 7917
SWIDTH 504 0
DWIDTH 14 0
BBX 15 26 1 0
BITMAP
0300
0700
0600
0600
0606
0006
000C
F078
F070
F070
F070
F070
F070
F070
F070
F070
F070
F070
F070
F070
F070
F070
78F0
7FF0
3FE0
1FC0
ENDCHAR
STARTCHAR 1EEE
ENCODING 7918
SWIDTH 504 0
DWIDTH 14 0
BBX 15 25 1 0
BITMAP
1C00
1F80
1780
0006
0006
000C
F078
F070
F070
F070
F070
F070
F070
F070
F070
F070
F070
F070
F070
F070
F070
78F0
7FF0
3FE0
1FC0
ENDCHAR
STARTCHAR 1EEF
ENCODING 7919
SWIDTH 504 0
DWIDTH 14 0
BBX 15 25 1 0
BITMAP
1C00
1F80
1780
0006
0006
000C
F078
F070
F070
F070
F070
F070
F070
F070
F070
F070
F070
F070
F070
F070
F070
78F0
7FF0
3FE0
1FC0
ENDCHAR
STARTCHAR 1EF0
ENCODING 7920
SWIDTH 504 0
DWIDTH 14 0
BBX 15 30 1 -8
BITMAP
0006
0006
000C
F078
F070
F070
F070
F070
F070
F070
F070
F070
F070
F070
F070
F070
F070
F070
78F0
7FF0
3FE0
1FC0
0000
0000
0000
0700
0F00
0F80
0F00
0200
ENDCHAR
STARTCHAR 1EF1
ENCODING 7921
SWIDTH 504 0
DWIDTH 14 0
BBX 15 30 1 -8
BITMAP
0006
0006
000C
F078
F070
F070
F070
F070
F070
F070
F070
F070
F070
F070
F070
F070
F070
F070
78F0
7FF0
3FE0
1FC0
0000
0000
0000
0700
0F00
0F80
0F00
0200
ENDCHAR
STARTCHAR 1EF2
ENCODING 7922
SWIDTH 504 0
DWIDTH 14 0
BBX 12 25 1 0
BITMAP
1C00
0C00
0600
0600
0000
0000
F070
F070
F070
F070
F070
F070
F070
F070
F070
F070
F0F0
7FE0
3FE0
1FC0
0F00
0F00
0F00
0F00
0F00
ENDCHAR
STARTCHAR 1EF3
ENCODING 7923
SWIDTH 504 0
DWIDTH 14 0
BBX 12 25 1 0
BITMAP
1C00
0C00
0600
0600
0000
0000
F070
F070
F070
F070
F070
F070
F070
F070
F070
F070
F0F0
7FE0
3FE0
1FC0
0F00
0F00
0F00
0F00
0F00
ENDCHAR
STARTCHAR 1EF4
ENCODING 7924
SWIDTH 504 0
DWIDTH 14 0
BBX 12 27 1 -8
BITMAP
F070
F070
F070
F070
F070
F070
F070
F070
F070
F070
F0F0
7FE0
3FE0
1FC0
0F00
0F00
0F00
0F00
0F00
0000
0000
0000
0600
0F00
0F00
0F00
0200
ENDCHAR
STARTCHAR 1EF5
ENCODING 7925
SWIDTH 504 0
DWIDTH 14 0
BBX 12 27 1 -8
BITMAP
F070
F070
F070
F070
F070
F070
F070
F070
F070
F070
F0F0
7FE0
3FE0
1FC0
0F00
0F00
0F00
0F00
0F00
0000
0000
0000
0600
0F00
0F00
0F00
0200
ENDCHAR
STARTCHAR 1EF6
ENCODING 7926
SWIDTH 504 0
DWIDTH 14 0
BBX 12 26 1 0
BITMAP
0700
0600
0600
0600
0600
0000
0000
F070
F070
F070
F070
F070
F070
F070
F070
F070
F070
F0F0
7FE0
3FE0
1FC0
0F00
0F00
0F00
0F00
0F00
ENDCHAR
STARTCHAR 1EF7
ENCODING 7927
SWIDTH 504 0
DWIDTH 14 0
BBX 12 26 1 0
BITMAP
0700
0600
0600
0600
0600
0000
0000
F070
F070
F070
F070
F070
F070
F070
F070
F070
F070
F0F0
7FE0
3FE0
1FC0
0F00
0F00
0F00
0F00
0F00
ENDCHAR
STARTCHAR 1EF8
ENCODING 7928
SWIDTH 504 0
DWIDTH 14 0
BBX 12 25 1 0
BITMAP
1C00
3F80
3780
0000
0000
0000
F070
F070
F070
F070
F070
F070
F070
F070
F070
F070
F0F0
7FE0
3FE0
1FC0
0F00
0F00
0F00
0F00
0F00
ENDCHAR
STARTCHAR 1EF9
ENCODING 7929
SWIDTH 504 0
DWIDTH 14 0
BBX 12 25 1 0
BITMAP
1C00
3F80
3780
0000
0000
0000
F070
F070
F070
F070
F070
F070
F070
F070
F070
F070
F0F0
7FE0
3FE0
1FC0
0F00
0F00
0F00
0F00
0F00
ENDCHAR
STARTCHAR 2013
ENCODING 8211
SWIDTH 576 0
DWIDTH 16 0
BBX 13 2 2 6
BITMAP
FFF8
FFF8
ENDCHAR
STARTCHAR 2014
ENCODING 8212
SWIDTH 792 0
DWIDTH 22 0
BBX 19 2 2 6
BITMAP
FFFFE0
FFFFE0
ENDCHAR
STARTCHAR 2018
ENCODING 8216
SWIDTH 252 0
DWIDTH 7 0
BBX 3 5 2 14
BITMAP
60
60
E0
E0
E0
ENDCHAR
STARTCHAR 2019
ENCODING 8217
SWIDTH 252 0
DWIDTH 7 0
BBX 3 5 2 14
BITMAP
E0
E0
C0
C0
C0
ENDCHAR
STARTCHAR 201A
ENCODING 8218
SWIDTH 252 0
DWIDTH 7 0
BBX 3 5 2 -3
BITMAP
E0
E0
E0
C0
C0
ENDCHAR
STARTCHAR 201C
ENCODING 8220
SWIDTH 396 0
DWIDTH 11 0
BBX 8 5 2 14
BITMAP
63
63
67
E7
E7
ENDCHAR
STARTCHAR 201D
ENCODING 8221
SWIDTH 396 0
DWIDTH 11 0
BBX 8 5 2 14
BITMAP
E7
E7
C6
C6
CE
ENDCHAR
STARTCHAR 201E
ENCODING 8222
SWIDTH 432 0
DWIDTH 12 0
BBX 9 5 2 -3
BITMAP
E380
E300
E700
C700
C600
ENDCHAR
STARTCHAR 2020
ENCODING 8224
SWIDTH 396 0
DWIDTH 11 0
BBX 8 14 2 6
BITMAP
18
18
18
FF
FF
18
18
18
18
18
18
18
18
18
ENDCHAR
STARTCHAR 2021
ENCODING 8225
SWIDTH 396 0
DWIDTH 11 0
BBX 8 14 2 6
BITMAP
18
18
18
FF
FF
18
18
18
18
FF
FF
18
18
18
ENDCHAR
STARTCHAR 2022
ENCODING 8226
SWIDTH 324 0
DWIDTH 9 0
BBX 6 6 2 5
BITMAP
70
F8
FC
FC
F8
78
ENDCHAR
STARTCHAR 2026
ENCODING 8230
SWIDTH 684 0
DWIDTH 19 0
BBX 16 4 2 0
BITMAP
E387
F3CF
F3CF
F3CF
ENDCHAR
STARTCHAR 2030
ENCODING 8240
SWIDTH 1332 0
DWIDTH 37 0
BBX 34 20 2 0
BITMAP
1E00E00000
7F00C00000
FF81C00000
E383800000
C187000000
C186000000
E38E000000
FF9C000000
7F18000000
0C38000000
0070000000
0063F03F00
00E7F87F80
01C73CF380
038E1CE1C0
030E1CE1C0
070E1CE1C0
0E073CF380
0C07F87F80
1C03F03F00
ENDCHAR
STARTCHAR 2039
ENCODING 8249
SWIDTH 360 0
DWIDTH 10 0
BBX 7 13 2 2
BITMAP
0E
1E
1C
38
70
E0
E0
F0
70
38
1C
1E
0E
ENDCHAR
STARTCHAR 203A
ENCODING 8250
SWIDTH 360 0
DWIDTH 10 0
BBX 7 13 2 2
BITMAP
E0
F0
70
38
1C
1E
0E
1E
1C
38
70
F0
E0
ENDCHAR
STARTCHAR 2044
ENCODING 8260
SWIDTH 684 0
DWIDTH 19 0
BBX 15 19 2 0
BITMAP
000E
000C
001C
0038
0030
0070
00E0
01C0
0180
0380
0700
0600
0E00
1C00
1800
3800
7000
E000
C000
ENDCHAR
STARTCHAR 20AC
ENCODING 8364
SWIDTH 648 0
DWIDTH 18 0
BBX 14 20 2 0
BITMAP
003C
01FC
03FC
0FFC
0F00
1E00
1C00
FFF0
FFF0
FFF0
3C00
FFF0
FFF0
3C00
1E00
1F00
0F80
07FC
03FC
00FC
ENDCHAR
STARTCHAR 2122
ENCODING 8482
SWIDTH 828 0
DWIDTH 23 0
BBX 20 11 2 9
BITMAP
FE0870
FF8E70
FFCF70
31FFF0
31FFF0
31DE70
31CE70
31CE70
31CE70
31CE70
31CE70
ENDCHAR
STARTCHAR 2190
ENCODING 8592
SWIDTH 828 0
DWIDTH 23 0
BBX 20 14 2 3
BITMAP
020000
070000
0F0000
1E0000
3C0000
780000
FFFFF0
FFFFF0
780000
3C0000
1E0000
0F0000
070000
020000
ENDCHAR
STARTCHAR 2191
ENCODING 8593
SWIDTH 612 0
DWIDTH 17 0
BBX 13 20 2 0
BITMAP
0200
0700
0F80
1FC0
3FE0
7FF0
F778
E738
4710
0700
0700
0700
0700
0700
0700
0700
0700
0700
0700
0700
ENDCHAR
STARTCHAR 2192
ENCODING 8594
SWIDTH 828 0
DWIDTH 23 0
BBX 19 14 2 3
BITMAP
000800
001C00
001E00
000F00
000780
0003C0
FFFFE0
FFFFE0
0003C0
000780
000F00
001E00
001C00
000800
ENDCHAR
STARTCHAR 2193
ENCODING 8595
SWIDTH 612 0
DWIDTH 17 0
BBX 14 19 2 -1
BITMAP
0700
0700
0700
0700
0700
0700
0700
0700
0700
0700
0700
4718
E73C
7778
3FF0
1FE0
0FC0
0780
0300
ENDCHAR
STARTCHAR 2194
ENCODING 8596
SWIDTH 900 0
DWIDTH 25 0
BBX 22 14 2 3
BITMAP
020100
070380
0F03C0
1E01E0
3C00F0
780078
FFFFFC
FFFFFC
780078
3C00F0
1E01E0
0F03C0
070380
020100
ENDCHAR
STARTCHAR 2195
ENCODING 8597
SWIDTH 648 0
DWIDTH 18 0
BBX 15 20 2 -1
BITMAP
0100
0780
0FE0
1FF0
3FF8
F3BC
E38E
4384
0380
0380
0380
0380
0384
E38E
F39E
7BBC
3FF8
1FE0
07C0
0380
ENDCHAR
STARTCHAR 2196
ENCODING 8598
SWIDTH 648 0
DWIDTH 18 0
BBX 14 15 2 2
BITMAP
FFC0
FFC0
F000
F800
FC00
DE00
CF00
C780
C3C0
C1E0
00F0
0078
003C
001C
0008
ENDCHAR
STARTCHAR 2197
ENCODING 8599
SWIDTH 648 0
DWIDTH 18 0
BBX 15 15 2 2
BITMAP
07FE
07FE
003E
007E
00FE
01EE
03CE
078E
0F0E
1E0E
3C00
7800
F000
E000
4000
ENDCHAR
STARTCHAR 2198
ENCODING 8600
SWIDTH 648 0
DWIDTH 18 0
BBX 15 15 2 2
BITMAP
4000
E000
F000
7800
3C00
1E0E
0F0E
078E
03CE
01EE
00FE
007E
003E
07FE
07FE
ENDCHAR
STARTCHAR 2199
ENCODING 8601
SWIDTH 648 0
DWIDTH 18 0
BBX 14 15 2 2
BITMAP
0008
001C
003C
0078
00F0
C1E0
C3C0
C780
CF00
DE00
FC00
F800
F000
FFC0
FFC0
ENDCHAR
STARTCHAR 2202
ENCODING 8706
SWIDTH 576 0
DWIDTH 16 0
BBX 13 21 2 0
BITMAP
0800
1E00
1F00
1F80
07C0
03E0
01F0
00F0
0478
3FF8
7FF8
FFF8
F0F8
F078
E078
E078
E070
F0F0
FFE0
7FE0
3F80
ENDCHAR
STARTCHAR 2205
ENCODING 8709
SWIDTH 720 0
DWIDTH 20 0
BBX 17 17 2 1
BITMAP
000100
0FF380
1E7F00
300E00
601F00
E03B00
C07300
C0E180
C1C180
C38180
C70180
CE0300
FC0300
780700
700E00
FE3C00
CFF000
ENDCHAR
STARTCHAR 220F
ENCODING 8719
SWIDTH 612 0
DWIDTH 17 0
BBX 14 23 2 -3
BITMAP
FFFC
FFFC
FFFC
7030
7030
7030
7030
7030
7030
7030
7030
7030
7030
7030
7030
7030
7030
7030
7030
7030
7030
7030
7030
ENDCHAR
STARTCHAR 2211
ENCODING 8721
SWIDTH 504 0
DWIDTH 14 0
BBX 11 23 2 -3
BITMAP
FFE0
FFE0
FFE0
F000
7000
7800
3800
3C00
1C00
1E00
0E00
0F00
0E00
1E00
1C00
3C00
3800
7000
F000
E000
FFE0
FFE0
FFE0
ENDCHAR
STARTCHAR 2212
ENCODING 8722
SWIDTH 540 0
DWIDTH 15 0
BBX 12 2 2 8
BITMAP
FFF0
FFF0
ENDCHAR
STARTCHAR 221A
ENCODING 8730
SWIDTH 684 0
DWIDTH 19 0
BBX 16 23 2 -3
BITMAP
003F
003F
007F
0070
0070
0070
00E0
00E0
00E0
01E0
01C0
E1C0
E1C0
E380
7380
7380
7380
3F00
3F00
3F00
1E00
1E00
1E00
ENDCHAR
STARTCHAR 221E
ENCODING 8734
SWIDTH 828 0
DWIDTH 23 0
BBX 20 10 2 5
BITMAP
080200
7F0FC0
FFBFE0
C1F860
C0F070
C0E070
C1F060
E7BCE0
7F1FC0
3C0780
ENDCHAR
STARTCHAR 222B
ENCODING 8747
SWIDTH 504 0
DWIDTH 14 0
BBX 11 23 2 -3
BITMAP
00E0
03E0
03C0
0700
0700
0700
0700
0600
0E00
0E00
0E00
0E00
0E00
1C00
1C00
1C00
1C00
1C00
1C00
3800
7800
F000
E000
ENDCHAR
STARTCHAR 2248
ENCODING 8776
SWIDTH 540 0
DWIDTH 15 0
BBX 12 10 2 4
BITMAP
F000
FFF0
FFF0
03E0
0000
0000
F800
FFF0
FFF0
01E0
ENDCHAR
STARTCHAR 2260
ENCODING 8800
SWIDTH 540 0
DWIDTH 15 0
BBX 12 14 2 2
BITMAP
0180
0380
0380
FFF0
FFF0
0600
0E00
0E00
FFF0
FFF0
FFF0
1800
3800
3800
ENDCHAR
STARTCHAR 2264
ENCODING 8804
SWIDTH 540 0
DWIDTH 15 0
BBX 12 12 2 3
BITMAP
0010
03F0
3FF0
FF00
E000
FF00
3FF0
03F0
0010
0000
FFF0
FFF0
ENDCHAR
STARTCHAR 2265
ENCODING 8805
SWIDTH 540 0
DWIDTH 15 0
BBX 12 12 2 3
BITMAP
8000
F800
FFC0
0FF0
0070
0FF0
FFC0
F800
8000
0000
FFF0
FFF0
ENDCHAR
STARTCHAR 25CA
ENCODING 9674
SWIDTH 504 0
DWIDTH 14 0
BBX 11 16 2 2
BITMAP
1E00
1F00
3F00
3B80
7380
71C0
E1C0
E0E0
E0E0
E1C0
71C0
7380
3B80
3F00
1F00
1E00
ENDCHAR
ENDFONT
